<?xml version="1.0" encoding="utf-8"?>
<!-- Generator: Adobe Illustrator 16.0.0, SVG Export Plug-In . SVG Version: 6.00 Build 0)  -->
<!DOCTYPE svg PUBLIC "-//W3C//DTD SVG 1.1//EN" "http://www.w3.org/Graphics/SVG/1.1/DTD/svg11.dtd">
<svg version="1.1" id="Window" xmlns="http://www.w3.org/2000/svg" xmlns:xlink="http://www.w3.org/1999/xlink" x="0px" y="0px"
	 width="550px" height="550px" viewBox="0 0 550 550" enable-background="new 0 0 550 550" xml:space="preserve">
<g>
	<path fill="#656665" d="M38,131.373V87.554c0-22.091,17.909-40,40-40h432c22.092,0,40,17.909,40,40v43.818H38z"/>
	<linearGradient id="SVGID_1_" gradientUnits="userSpaceOnUse" x1="293.9995" y1="131.373" x2="293.9995" y2="432.5552">
		<stop  offset="0" style="stop-color:#E0E0E0"/>
		<stop  offset="1" style="stop-color:#ADADAD"/>
	</linearGradient>
	<path fill="url(#SVGID_1_)" d="M550,131.373v261.182c0,22.091-17.908,40-40,40H78c-22.091,0-40-17.909-40-40V131.373H550z"/>
	<path fill="#939393" d="M502.994,55.554H85.006c-22.091,0-40,17.909-40,40v7c0-22.091,17.909-40,40-40h417.988
		c22.092,0,40,17.909,40,40v-7C542.994,73.463,525.086,55.554,502.994,55.554z"/>
	<linearGradient id="SVGID_2_" gradientUnits="userSpaceOnUse" x1="84.0889" y1="83.1958" x2="84.0889" y2="111.1958">
		<stop  offset="0" style="stop-color:#F15A29"/>
		<stop  offset="1" style="stop-color:#BE1E2D"/>
	</linearGradient>
	<circle fill="url(#SVGID_2_)" cx="84.089" cy="97.196" r="14"/>
	<linearGradient id="SVGID_3_" gradientUnits="userSpaceOnUse" x1="121.5889" y1="83.1958" x2="121.5889" y2="111.1953">
		<stop  offset="0" style="stop-color:#F9ED32"/>
		<stop  offset="1" style="stop-color:#F7941E"/>
	</linearGradient>
	<circle fill="url(#SVGID_3_)" cx="121.589" cy="97.196" r="14"/>
	<linearGradient id="SVGID_4_" gradientUnits="userSpaceOnUse" x1="159.0889" y1="83.1958" x2="159.0889" y2="111.1953">
		<stop  offset="0" style="stop-color:#8DC63F"/>
		<stop  offset="1" style="stop-color:#39B54A"/>
	</linearGradient>
	<circle fill="url(#SVGID_4_)" cx="159.089" cy="97.196" r="14"/>
</g>
<g>
	<path id="back" fill="#237B3D" d="M0,335.664v166.781h202.217V335.664H0z M21.683,490.242c-3.045,0-5.534-2.471-5.534-5.516
		c0-3.06,2.489-5.529,5.534-5.529c3.042,0,5.522,2.47,5.522,5.529C27.205,487.771,24.725,490.242,21.683,490.242z M21.683,358.905
		c-3.045,0-5.534-2.478-5.534-5.523c0-3.052,2.489-5.522,5.534-5.522c3.042,0,5.522,2.471,5.522,5.522
		C27.205,356.428,24.725,358.905,21.683,358.905z M74.632,490.242c-3.052,0-5.522-2.471-5.522-5.516c0-3.06,2.471-5.529,5.522-5.529
		c3.046,0,5.523,2.47,5.523,5.529C80.155,487.771,77.678,490.242,74.632,490.242z M74.632,358.905c-3.052,0-5.522-2.478-5.522-5.523
		c0-3.052,2.471-5.522,5.522-5.522c3.046,0,5.523,2.471,5.523,5.522C80.155,356.428,77.678,358.905,74.632,358.905z
		 M127.581,490.242c-3.045,0-5.516-2.471-5.516-5.516c0-3.06,2.471-5.529,5.516-5.529c3.046,0,5.53,2.47,5.53,5.529
		C133.111,487.771,130.627,490.242,127.581,490.242z M127.581,358.905c-3.045,0-5.516-2.478-5.516-5.523
		c0-3.052,2.471-5.522,5.516-5.522c3.046,0,5.53,2.471,5.53,5.522C133.111,356.428,130.627,358.905,127.581,358.905z
		 M180.541,490.242c-3.052,0-5.529-2.471-5.529-5.516c0-3.06,2.478-5.529,5.529-5.529c3.046,0,5.517,2.47,5.517,5.529
		C186.058,487.771,183.587,490.242,180.541,490.242z M180.541,358.905c-3.052,0-5.529-2.478-5.529-5.523
		c0-3.052,2.478-5.522,5.529-5.522c3.046,0,5.517,2.471,5.517,5.522C186.058,356.428,183.587,358.905,180.541,358.905z"/>
	<path id="mark" fill="#9A916C" d="M44.507,478.594c0-1.796,1.634-3.246,3.648-3.246s3.648,1.45,3.648,3.246v16.131
		c0,1.803-1.634,3.246-3.648,3.246s-3.648-1.443-3.648-3.246V478.594z"/>
	<g id="pads">
		<g id="g165085">
			<g id="g164895" transform="translate(145.40612,205.97844)">
				<path id="path4142" fill="#E0BB6C" d="M-106.896,264.148h-33.647c-0.485,0-0.897,0.323-0.897,0.726v29.826
					c0,0.396,0.413,0.726,0.897,0.726h33.647c0.485,0,0.895-0.33,0.895-0.726v-29.826
					C-106.002,264.471-106.404,264.148-106.896,264.148z M-123.723,283.963c-2.876,0-5.214-2.342-5.214-5.215
					c0-2.887,2.338-5.214,5.214-5.214s5.214,2.327,5.214,5.214C-118.51,281.614-120.848,283.963-123.723,283.963z"/>
				<g id="g164943" transform="translate(0,-169.33332)" opacity="0.3">
					<g id="g164945" transform="translate(0,84.66666)">
						<path id="path164947" fill="#010101" d="M-141.441,379.359c0,0.402,0.413,0.732,0.897,0.732h33.647
							c0.485,0,0.895-0.33,0.895-0.732v-0.632c0,0.402-0.409,0.732-0.895,0.732h-33.647c-0.485,0-0.897-0.33-0.897-0.732"/>
					</g>
				</g>
				<g id="g164969" transform="translate(145.40612,36.64512)" opacity="0.25">
					<path id="path164973" fill="#FFFFFF" d="M-251.419,228.594c0-0.396-0.413-0.726-0.897-0.726h-33.648
						c-0.484,0-0.897,0.33-0.897,0.726l0.015-0.359c0-0.409,0.413-0.726,0.897-0.726h33.647c0.485,0,0.898,0.316,0.898,0.726"/>
				</g>
			</g>
		</g>
		<g id="g165085_1_">
			<g id="g164895_1_" transform="translate(145.40612,205.97844)">
				<path id="path4151" fill="#E0BB6C" d="M-53.947,264.148h-33.644c-0.488,0-0.897,0.323-0.897,0.726v29.826
					c0,0.396,0.409,0.726,0.897,0.726h33.644c0.485,0,0.898-0.33,0.898-0.726v-29.826
					C-53.049,264.471-53.462,264.148-53.947,264.148z M-70.774,283.963c-2.88,0-5.214-2.342-5.214-5.215
					c0-2.887,2.334-5.214,5.214-5.214c2.876,0,5.207,2.327,5.207,5.214C-65.567,281.614-67.898,283.963-70.774,283.963z"/>
				<g id="g164943_1_" transform="translate(0,-169.33332)" opacity="0.3">
					<g id="g164945_1_" transform="translate(0,84.66666)">
						<path id="path164947_1_" fill="#010101" d="M-88.488,379.359c0,0.402,0.409,0.732,0.897,0.732h33.644
							c0.485,0,0.898-0.33,0.898-0.732v-0.632c0,0.402-0.413,0.732-0.898,0.732h-33.644c-0.488,0-0.897-0.33-0.897-0.732"/>
					</g>
				</g>
				<g id="g164969_1_" transform="translate(145.40612,36.64512)" opacity="0.25">
					<path id="path164973_1_" fill="#FFFFFF" d="M-198.469,228.594c0-0.396-0.413-0.726-0.897-0.726h-33.645
						c-0.488,0-0.897,0.33-0.897,0.726l0.015-0.359c0-0.409,0.412-0.726,0.897-0.726h33.644c0.488,0,0.898,0.316,0.898,0.726"/>
				</g>
			</g>
		</g>
		<g id="g165085_2_">
			<g id="g164895_2_" transform="translate(145.40612,205.97844)">
				<path id="path4160" fill="#E0BB6C" d="M-0.99,264.148h-33.641c-0.488,0-0.904,0.323-0.904,0.726v29.826
					c0,0.396,0.416,0.726,0.904,0.726H-0.99c0.481,0,0.891-0.33,0.891-0.726v-29.826C-0.099,264.471-0.509,264.148-0.99,264.148z
					 M-17.825,283.963c-2.872,0-5.214-2.342-5.214-5.215c0-2.887,2.342-5.214,5.214-5.214c2.88,0,5.215,2.327,5.215,5.214
					C-12.61,281.614-14.952,283.963-17.825,283.963z"/>
				<g id="g164943_2_" transform="translate(0,-169.33332)" opacity="0.3">
					<g id="g164945_2_" transform="translate(0,84.66666)">
						<path id="path164947_2_" fill="#010101" d="M-35.55,379.359c0,0.402,0.424,0.732,0.905,0.732h33.64
							c0.489,0,0.905-0.33,0.905-0.732v-0.632c0,0.402-0.416,0.732-0.905,0.732h-33.64c-0.481,0-0.905-0.33-0.905-0.732"/>
					</g>
				</g>
				<g id="g164969_2_" transform="translate(145.40612,36.64512)" opacity="0.25">
					<path id="path164973_2_" fill="#FFFFFF" d="M-145.52,228.594c0-0.396-0.409-0.726-0.891-0.726h-33.64
						c-0.489,0-0.905,0.33-0.905,0.726l0.015-0.359c0-0.409,0.416-0.726,0.904-0.726h33.641c0.481,0,0.891,0.316,0.891,0.726"/>
				</g>
			</g>
		</g>
		<g id="g165085_3_">
			<g id="g164895_3_" transform="translate(145.40612,205.97844)">
				<path id="path4169" fill="#E0BB6C" d="M51.955,264.148H18.315c-0.48,0-0.904,0.323-0.904,0.726v29.826
					c0,0.396,0.424,0.726,0.904,0.726h33.641c0.489,0,0.898-0.33,0.898-0.726v-29.826C52.854,264.471,52.444,264.148,51.955,264.148
					z M35.135,283.963c-2.879,0-5.214-2.342-5.214-5.215c0-2.887,2.335-5.214,5.214-5.214c2.873,0,5.215,2.327,5.215,5.214
					C40.35,281.614,38.008,283.963,35.135,283.963z"/>
				<g id="g164943_3_" transform="translate(0,-169.33332)" opacity="0.3">
					<g id="g164945_3_" transform="translate(0,84.66666)">
						<path id="path164947_3_" fill="#010101" d="M17.41,379.359c0,0.402,0.424,0.732,0.904,0.732h33.641
							c0.489,0,0.898-0.33,0.898-0.732v-0.632c0,0.402-0.409,0.732-0.898,0.732H18.315c-0.48,0-0.904-0.33-0.904-0.732"/>
					</g>
				</g>
				<g id="g164969_3_" transform="translate(145.40612,36.64512)" opacity="0.25">
					<path id="path164973_3_" fill="#FFFFFF" d="M-92.567,228.594c0-0.396-0.409-0.726-0.897-0.726h-33.641
						c-0.481,0-0.905,0.33-0.905,0.726l0.015-0.359c0-0.409,0.424-0.726,0.904-0.726h33.641c0.489,0,0.905,0.316,0.905,0.726"/>
				</g>
			</g>
		</g>
		<g id="g165085_7_">
			<g id="g164895_7_" transform="translate(145.40612,205.97844)">
				<path id="path4178" fill="#E0BB6C" d="M-106.896,130.727h-33.647c-0.485,0-0.897,0.324-0.897,0.726v29.823
					c0,0.398,0.413,0.729,0.897,0.729h33.647c0.485,0,0.895-0.331,0.895-0.729v-29.823
					C-106.002,131.051-106.404,130.727-106.896,130.727z M-123.723,152.61c-2.876,0-5.214-2.337-5.214-5.203
					c0-2.884,2.338-5.207,5.214-5.207s5.214,2.323,5.214,5.207C-118.51,150.273-120.848,152.61-123.723,152.61z"/>
				<g id="g164943_7_" transform="translate(0,-169.33332)" opacity="0.3">
					<g id="g164945_7_" transform="translate(0,84.66666)">
						<path id="path164947_7_" fill="#010101" d="M-141.441,245.939c0,0.395,0.413,0.726,0.897,0.726h33.647
							c0.485,0,0.895-0.331,0.895-0.726v-0.632c0,0.395-0.409,0.725-0.895,0.725h-33.647c-0.485,0-0.897-0.33-0.897-0.725"/>
					</g>
				</g>
				<g id="g164969_7_" transform="translate(145.40612,36.64512)" opacity="0.25">
					<path id="path164973_7_" fill="#FFFFFF" d="M-251.419,95.163c0-0.398-0.413-0.722-0.897-0.722h-33.648
						c-0.484,0-0.897,0.323-0.897,0.722l0.015-0.358c0-0.406,0.413-0.729,0.897-0.729h33.647c0.485,0,0.898,0.323,0.898,0.729"/>
				</g>
			</g>
		</g>
		<g id="g165085_6_">
			<g id="g164895_6_" transform="translate(145.40612,205.97844)">
				<path id="path4187" fill="#E0BB6C" d="M-53.954,130.727h-33.637c-0.488,0-0.897,0.324-0.897,0.726v29.823
					c0,0.398,0.409,0.729,0.897,0.729h33.637c0.485,0,0.905-0.331,0.905-0.729v-29.823
					C-53.049,131.051-53.462,130.727-53.954,130.727z M-70.774,152.61c-2.88,0-5.214-2.337-5.214-5.203
					c0-2.884,2.334-5.207,5.214-5.207c2.876,0,5.207,2.331,5.207,5.207C-65.567,150.273-67.898,152.61-70.774,152.61z"/>
				<g id="g164943_6_" transform="translate(0,-169.33332)" opacity="0.3">
					<g id="g164945_6_" transform="translate(0,84.66666)">
						<path id="path164947_6_" fill="#010101" d="M-88.488,245.939c0,0.395,0.409,0.726,0.897,0.726h33.637
							c0.485,0,0.905-0.331,0.905-0.726v-0.632c0,0.395-0.42,0.725-0.905,0.725h-33.637c-0.488,0-0.897-0.33-0.897-0.725"/>
					</g>
				</g>
				<g id="g164969_6_" transform="translate(145.40612,36.64512)" opacity="0.25">
					<path id="path164973_6_" fill="#FFFFFF" d="M-198.469,95.163c0-0.398-0.42-0.722-0.905-0.722h-33.637
						c-0.484,0-0.897,0.323-0.897,0.722l0.015-0.358c0-0.406,0.412-0.729,0.897-0.729h33.637c0.488,0,0.905,0.323,0.905,0.729"/>
				</g>
			</g>
		</g>
		<g id="g165085_5_">
			<g id="g164895_5_" transform="translate(145.40612,205.97844)">
				<path id="path4196" fill="#E0BB6C" d="M-0.99,130.727h-33.641c-0.488,0-0.904,0.324-0.904,0.726v29.823
					c0,0.398,0.416,0.729,0.904,0.729H-0.99c0.481,0,0.891-0.331,0.891-0.729v-29.823C-0.099,131.051-0.509,130.727-0.99,130.727z
					 M-17.825,152.61c-2.872,0-5.214-2.337-5.214-5.203c0-2.884,2.342-5.207,5.214-5.207c2.88,0,5.215,2.331,5.215,5.207
					C-12.61,150.273-14.952,152.61-17.825,152.61z"/>
				<g id="g164943_5_" transform="translate(0,-169.33332)" opacity="0.3">
					<g id="g164945_5_" transform="translate(0,84.66666)">
						<path id="path164947_5_" fill="#010101" d="M-35.55,245.939c0,0.395,0.424,0.726,0.905,0.726h33.64
							c0.489,0,0.905-0.331,0.905-0.726v-0.632c0,0.395-0.416,0.725-0.905,0.725h-33.64c-0.481,0-0.905-0.33-0.905-0.725"/>
					</g>
				</g>
				<g id="g164969_5_" transform="translate(145.40612,36.64512)" opacity="0.25">
					<path id="path164973_5_" fill="#FFFFFF" d="M-145.52,95.163c0-0.398-0.409-0.722-0.891-0.722h-33.64
						c-0.489,0-0.905,0.323-0.905,0.722l0.015-0.358c0-0.406,0.416-0.729,0.904-0.729h33.641c0.481,0,0.891,0.323,0.891,0.729"/>
				</g>
			</g>
		</g>
		<g id="g165085_4_">
			<g id="g164895_4_" transform="translate(145.40612,205.97844)">
				<path id="path4205" fill="#E0BB6C" d="M51.955,130.727H18.315c-0.48,0-0.904,0.324-0.904,0.726v29.823
					c0,0.398,0.424,0.729,0.904,0.729h33.641c0.489,0,0.898-0.331,0.898-0.729v-29.823
					C52.854,131.051,52.444,130.727,51.955,130.727z M35.135,152.61c-2.879,0-5.214-2.337-5.214-5.203
					c0-2.884,2.335-5.207,5.214-5.207c2.873,0,5.215,2.331,5.215,5.207C40.35,150.273,38.008,152.61,35.135,152.61z"/>
				<g id="g164943_4_" transform="translate(0,-169.33332)" opacity="0.3">
					<g id="g164945_4_" transform="translate(0,84.66666)">
						<path id="path164947_4_" fill="#010101" d="M17.41,245.939c0,0.395,0.424,0.726,0.904,0.726h33.641
							c0.489,0,0.898-0.331,0.898-0.726v-0.632c0,0.395-0.409,0.725-0.898,0.725H18.315c-0.48,0-0.904-0.33-0.904-0.725"/>
					</g>
				</g>
				<g id="g164969_4_" transform="translate(145.40612,36.64512)" opacity="0.25">
					<path id="path164973_4_" fill="#FFFFFF" d="M-92.567,95.163c0-0.398-0.409-0.722-0.897-0.722h-33.641
						c-0.481,0-0.905,0.323-0.905,0.722l0.015-0.358c0-0.406,0.424-0.729,0.904-0.729h33.641c0.489,0,0.905,0.323,0.905,0.729"/>
				</g>
			</g>
		</g>
		<g id="g4212">
			<rect id="rect4214" x="31.221" y="461.442" fill="#E0BB6C" width="4.897" height="11.506"/>
			<rect id="rect4216" x="168.634" y="461.442" fill="#E0BB6C" width="4.898" height="11.506"/>
			<rect id="rect4218" x="73.544" y="461.442" fill="#E0BB6C" width="4.898" height="11.506"/>
			<rect id="rect4220" x="119.969" y="461.442" fill="#E0BB6C" width="4.898" height="11.506"/>
			<rect id="rect4222" x="31.221" y="364.561" fill="#E0BB6C" width="4.897" height="11.51"/>
			<rect id="rect4224" x="168.634" y="364.561" fill="#E0BB6C" width="4.898" height="11.51"/>
			<rect id="rect4226" x="73.544" y="364.561" fill="#E0BB6C" width="4.898" height="11.51"/>
			<rect id="rect4228" x="119.969" y="364.561" fill="#E0BB6C" width="4.898" height="11.51"/>
		</g>
	</g>
	<g id="sensor">
		<path id="path4231" inkscape:connector-curvature="0" fill="#222222" d="M202.217,465.12c0,1.142-0.934,2.075-2.083,2.075H2.09
			c-1.156,0-2.09-0.926-2.09-2.075v-92.131c0-1.156,0.934-2.09,2.09-2.09h198.044c1.149,0,2.083,0.934,2.083,2.09V465.12z"/>
		<g id="g4233">
			<g id="g4235">
				<rect id="rect4237" x="13.553" y="404.091" fill="#838C61" width="175.119" height="19.137"/>
				
					<radialGradient id="rect4563_1_" cx="23.1196" cy="75.4272" r="87.5608" gradientTransform="matrix(1.903 -0.0602 -0.03 -0.9475 8.0266 477.7291)" gradientUnits="userSpaceOnUse">
					<stop  offset="0" style="stop-color:#FFFFFF"/>
					<stop  offset="1" style="stop-color:#FFFFFF;stop-opacity:0"/>
				</radialGradient>
				
					<rect id="rect4563" x="13.553" y="404.091" opacity="0.5" fill="url(#rect4563_1_)" enable-background="new    " width="175.119" height="19.137"/>
			</g>
			<g id="g4254">
				<rect id="rect4256" x="15.7" y="406.913" fill="#010101" width="1.214" height="1.749"/>
				<rect id="rect4258" x="17.039" y="406.913" fill="#010101" width="1.214" height="1.749"/>
				<rect id="rect4260" x="18.379" y="406.92" fill="#010101" width="1.214" height="1.749"/>
				<rect id="rect4262" x="19.711" y="406.92" fill="#010101" width="1.214" height="1.749"/>
				<rect id="rect4264" x="21.047" y="406.913" fill="#010101" width="1.207" height="1.749"/>
				<rect id="rect4266" x="22.379" y="406.913" fill="#010101" width="1.214" height="1.749"/>
				<rect id="rect4268" x="23.719" y="406.92" fill="#010101" width="1.214" height="1.749"/>
				<rect id="rect4270" x="25.047" y="406.92" fill="#010101" width="1.215" height="1.749"/>
				<rect id="rect4272" x="26.387" y="406.913" fill="#010101" width="1.214" height="1.749"/>
				<rect id="rect4274" x="27.727" y="406.913" fill="#010101" width="1.213" height="1.749"/>
				<rect id="rect4276" x="29.059" y="406.92" fill="#010101" width="1.214" height="1.749"/>
				<rect id="rect4278" x="30.395" y="406.92" fill="#010101" width="1.214" height="1.749"/>
				<rect id="rect4280" x="31.727" y="406.913" fill="#010101" width="1.214" height="1.749"/>
				<rect id="rect4282" x="33.066" y="406.913" fill="#010101" width="1.213" height="1.749"/>
				<rect id="rect4284" x="34.395" y="406.92" fill="#010101" width="1.214" height="1.749"/>
				<rect id="rect4286" x="35.734" y="406.92" fill="#010101" width="1.214" height="1.749"/>
				<rect id="rect4288" x="37.074" y="406.913" fill="#010101" width="1.213" height="1.749"/>
				<rect id="rect4290" x="38.406" y="406.913" fill="#010101" width="1.213" height="1.749"/>
				<rect id="rect4292" x="39.742" y="406.92" fill="#010101" width="1.213" height="1.749"/>
				<rect id="rect4294" x="41.074" y="406.92" fill="#010101" width="1.214" height="1.749"/>
				<rect id="rect4296" x="42.414" y="406.913" fill="#010101" width="1.213" height="1.749"/>
				<rect id="rect4298" x="43.746" y="406.913" fill="#010101" width="1.21" height="1.749"/>
				<rect id="rect4300" x="45.082" y="406.92" fill="#010101" width="1.213" height="1.749"/>
				<rect id="rect4302" x="46.421" y="406.92" fill="#010101" width="1.214" height="1.749"/>
				<rect id="rect4304" x="47.754" y="406.913" fill="#010101" width="1.213" height="1.749"/>
				<rect id="rect4306" x="49.089" y="406.913" fill="#010101" width="1.214" height="1.749"/>
				<rect id="rect4308" x="50.422" y="406.92" fill="#010101" width="1.213" height="1.749"/>
				<rect id="rect4310" x="51.761" y="406.92" fill="#010101" width="1.214" height="1.749"/>
				<rect id="rect4312" x="53.101" y="406.913" fill="#010101" width="1.21" height="1.749"/>
				<rect id="rect4314" x="54.429" y="406.913" fill="#010101" width="1.214" height="1.749"/>
				<rect id="rect4316" x="55.769" y="406.92" fill="#010101" width="1.214" height="1.749"/>
				<rect id="rect4318" x="57.101" y="406.92" fill="#010101" width="1.214" height="1.749"/>
				<rect id="rect4320" x="58.437" y="406.913" fill="#010101" width="1.214" height="1.749"/>
				<rect id="rect4322" x="59.769" y="406.913" fill="#010101" width="1.214" height="1.749"/>
				<rect id="rect4324" x="61.108" y="406.92" fill="#010101" width="1.214" height="1.749"/>
				<rect id="rect4326" x="62.447" y="406.92" fill="#010101" width="1.211" height="1.749"/>
				<rect id="rect4328" x="63.776" y="406.913" fill="#010101" width="1.214" height="1.749"/>
				<rect id="rect4330" x="65.115" y="406.913" fill="#010101" width="1.207" height="1.749"/>
				<rect id="rect4332" x="66.448" y="406.92" fill="#010101" width="1.214" height="1.749"/>
				<rect id="rect4334" x="67.784" y="406.92" fill="#010101" width="1.214" height="1.749"/>
				<rect id="rect4336" x="69.116" y="406.913" fill="#010101" width="1.214" height="1.749"/>
				<rect id="rect4338" x="70.455" y="406.913" fill="#010101" width="1.215" height="1.749"/>
				<rect id="rect4340" x="71.795" y="406.92" fill="#010101" width="1.211" height="1.749"/>
				<rect id="rect4342" x="73.124" y="406.92" fill="#010101" width="1.214" height="1.749"/>
				<rect id="rect4344" x="74.463" y="406.913" fill="#010101" width="1.214" height="1.749"/>
				<rect id="rect4346" x="75.795" y="406.913" fill="#010101" width="1.215" height="1.749"/>
				<rect id="rect4348" x="77.131" y="406.92" fill="#010101" width="1.215" height="1.749"/>
				<rect id="rect4350" x="78.464" y="406.92" fill="#010101" width="1.214" height="1.749"/>
				<rect id="rect4352" x="79.803" y="406.913" fill="#010101" width="1.214" height="1.749"/>
				<rect id="rect4354" x="81.143" y="406.913" fill="#010101" width="1.214" height="1.749"/>
				<rect id="rect4356" x="82.471" y="406.92" fill="#010101" width="1.214" height="1.749"/>
				<rect id="rect4358" x="83.811" y="406.92" fill="#010101" width="1.214" height="1.749"/>
				<rect id="rect4360" x="85.15" y="406.913" fill="#010101" width="1.213" height="1.749"/>
				<rect id="rect4362" x="86.479" y="406.913" fill="#010101" width="1.207" height="1.749"/>
				<rect id="rect4364" x="87.811" y="406.92" fill="#010101" width="1.214" height="1.749"/>
				<rect id="rect4366" x="89.15" y="406.92" fill="#010101" width="1.214" height="1.749"/>
				<rect id="rect4368" x="90.49" y="406.913" fill="#010101" width="1.213" height="1.749"/>
				<rect id="rect4370" x="91.818" y="406.913" fill="#010101" width="1.214" height="1.749"/>
				<rect id="rect4372" x="93.158" y="406.92" fill="#010101" width="1.214" height="1.749"/>
				<rect id="rect4374" x="94.498" y="406.92" fill="#010101" width="1.213" height="1.749"/>
				<rect id="rect4376" x="95.826" y="406.913" fill="#010101" width="1.214" height="1.749"/>
				<rect id="rect4378" x="97.166" y="406.913" fill="#010101" width="1.213" height="1.749"/>
				<rect id="rect4380" x="98.498" y="406.92" fill="#010101" width="1.214" height="1.749"/>
				<rect id="rect4382" x="99.838" y="406.92" fill="#010101" width="1.213" height="1.749"/>
				<rect id="rect4384" x="101.166" y="406.913" fill="#010101" width="1.214" height="1.749"/>
				<rect id="rect4386" x="102.506" y="406.913" fill="#010101" width="1.213" height="1.749"/>
				<rect id="rect4388" x="103.845" y="406.92" fill="#010101" width="1.214" height="1.749"/>
				<rect id="rect4390" x="105.174" y="406.92" fill="#010101" width="1.206" height="1.749"/>
				<rect id="rect4392" x="106.51" y="406.913" fill="#010101" width="1.221" height="1.749"/>
				<rect id="rect4394" x="107.846" y="406.913" fill="#010101" width="1.221" height="1.749"/>
				<rect id="rect4396" x="109.182" y="406.92" fill="#010101" width="1.206" height="1.749"/>
				<rect id="rect4398" x="110.517" y="406.92" fill="#010101" width="1.207" height="1.749"/>
				<rect id="rect4400" x="111.853" y="406.913" fill="#010101" width="1.207" height="1.749"/>
				<rect id="rect4402" x="113.188" y="406.913" fill="#010101" width="1.207" height="1.749"/>
				<rect id="rect4404" x="114.524" y="406.92" fill="#010101" width="1.207" height="1.749"/>
				<rect id="rect4406" x="115.86" y="406.92" fill="#010101" width="1.206" height="1.749"/>
				<rect id="rect4408" x="117.196" y="406.913" fill="#010101" width="1.206" height="1.749"/>
				<rect id="rect4410" x="118.532" y="406.913" fill="#010101" width="1.206" height="1.749"/>
				<rect id="rect4412" x="119.868" y="406.92" fill="#010101" width="1.206" height="1.749"/>
				<rect id="rect4414" x="121.204" y="406.92" fill="#010101" width="1.206" height="1.749"/>
				<rect id="rect4416" x="122.539" y="406.913" fill="#010101" width="1.207" height="1.749"/>
				<rect id="rect4418" x="123.875" y="406.913" fill="#010101" width="1.207" height="1.749"/>
				<rect id="rect4420" x="125.211" y="406.92" fill="#010101" width="1.207" height="1.749"/>
				<rect id="rect4422" x="126.547" y="406.92" fill="#010101" width="1.207" height="1.749"/>
				<rect id="rect4424" x="127.883" y="406.913" fill="#010101" width="1.207" height="1.749"/>
				<rect id="rect4426" x="129.219" y="406.913" fill="#010101" width="1.207" height="1.749"/>
				<rect id="rect4428" x="130.555" y="406.92" fill="#010101" width="1.207" height="1.749"/>
				<rect id="rect4430" x="131.876" y="406.92" fill="#010101" width="1.222" height="1.749"/>
				<rect id="rect4432" x="133.212" y="406.913" fill="#010101" width="1.222" height="1.749"/>
				<rect id="rect4434" x="134.548" y="406.913" fill="#010101" width="1.221" height="1.749"/>
				<rect id="rect4436" x="135.884" y="406.92" fill="#010101" width="1.221" height="1.749"/>
				<rect id="rect4438" x="137.234" y="406.92" fill="#010101" width="1.206" height="1.749"/>
				<rect id="rect4440" x="138.556" y="406.913" fill="#010101" width="1.221" height="1.749"/>
				<rect id="rect4442" x="139.906" y="406.913" fill="#010101" width="1.206" height="1.749"/>
				<rect id="rect4444" x="141.228" y="406.92" fill="#010101" width="1.221" height="1.749"/>
				<rect id="rect4446" x="142.562" y="406.92" fill="#010101" width="1.207" height="1.749"/>
				<rect id="rect4448" x="143.898" y="406.913" fill="#010101" width="1.222" height="1.749"/>
				<rect id="rect4450" x="145.234" y="406.913" fill="#010101" width="1.222" height="1.749"/>
				<rect id="rect4452" x="146.57" y="406.92" fill="#010101" width="1.221" height="1.749"/>
				<rect id="rect4454" x="147.906" y="406.92" fill="#010101" width="1.207" height="1.749"/>
				<rect id="rect4456" x="149.242" y="406.913" fill="#010101" width="1.221" height="1.749"/>
				<rect id="rect4458" x="150.578" y="406.913" fill="#010101" width="1.221" height="1.749"/>
				<rect id="rect4460" x="151.914" y="406.92" fill="#010101" width="1.221" height="1.749"/>
				<rect id="rect4462" x="153.25" y="406.92" fill="#010101" width="1.207" height="1.749"/>
				<rect id="rect4464" x="154.586" y="406.913" fill="#010101" width="1.206" height="1.749"/>
				<rect id="rect4466" x="155.922" y="406.913" fill="#010101" width="1.206" height="1.749"/>
				<rect id="rect4468" x="157.258" y="406.92" fill="#010101" width="1.206" height="1.749"/>
				<rect id="rect4470" x="158.594" y="406.92" fill="#010101" width="1.206" height="1.749"/>
				<rect id="rect4472" x="159.93" y="406.913" fill="#010101" width="1.206" height="1.749"/>
				<rect id="rect4474" x="161.266" y="406.913" fill="#010101" width="1.206" height="1.749"/>
				<rect id="rect4476" x="162.601" y="406.92" fill="#010101" width="1.207" height="1.749"/>
				<rect id="rect4478" x="163.937" y="406.92" fill="#010101" width="1.207" height="1.749"/>
				<rect id="rect4480" x="165.272" y="406.913" fill="#010101" width="1.207" height="1.749"/>
				<rect id="rect4482" x="166.608" y="406.913" fill="#010101" width="1.206" height="1.749"/>
				<rect id="rect4484" x="167.944" y="406.92" fill="#010101" width="1.206" height="1.749"/>
				<rect id="rect4486" x="169.28" y="406.92" fill="#010101" width="1.206" height="1.749"/>
				<rect id="rect4488" x="170.616" y="406.913" fill="#010101" width="1.206" height="1.749"/>
				<rect id="rect4490" x="171.952" y="406.913" fill="#010101" width="1.206" height="1.749"/>
				<rect id="rect4492" x="173.288" y="406.92" fill="#010101" width="1.206" height="1.749"/>
				<rect id="rect4494" x="174.623" y="406.92" fill="#010101" width="1.207" height="1.749"/>
				<rect id="rect4496" x="175.945" y="406.913" fill="#010101" width="1.221" height="1.749"/>
				<rect id="rect4498" x="177.295" y="406.913" fill="#010101" width="1.207" height="1.749"/>
				<rect id="rect4500" x="178.617" y="406.92" fill="#010101" width="1.221" height="1.749"/>
				<rect id="rect4502" x="179.967" y="406.92" fill="#010101" width="1.207" height="1.749"/>
				<rect id="rect4504" x="181.303" y="406.913" fill="#010101" width="1.207" height="1.749"/>
				<rect id="rect4506" x="182.639" y="406.913" fill="#010101" width="1.207" height="1.749"/>
				<rect id="rect4508" x="183.975" y="406.92" fill="#010101" width="1.207" height="1.749"/>
				<rect id="rect4510" x="185.296" y="406.92" fill="#010101" width="1.222" height="1.749"/>
			</g>
		</g>
		
			<rect id="rect4512" x="13.553" y="404.091" opacity="0.25" fill="#010101" enable-background="new    " width="175.119" height="1.124"/>
		<g id="Layer_2">
			<path id="path4515" inkscape:connector-curvature="0" opacity="0.1" fill="#FFFFFF" enable-background="new    " d="
				M6.618,431.199v-32c0-1.156,0.934-2.09,2.083-2.09h187.361c0.301,0,0.51,0.205,0.768,0.324c-0.129-1.031-0.919-1.86-1.989-1.86
				H7.495c-1.149,0-2.083,0.934-2.083,2.09v31.999c0,0.841,0.581,1.43,1.311,1.76C6.708,431.336,6.618,431.285,6.618,431.199z"/>
			
				<linearGradient id="path4524_1_" gradientUnits="userSpaceOnUse" x1="116.6611" y1="54.5635" x2="104.8155" y2="121.7409" gradientTransform="matrix(1 0 0 -1 -8.3599 502.3828)">
				<stop  offset="0" style="stop-color:#FFFFFF;stop-opacity:0"/>
				<stop  offset="0.6326" style="stop-color:#FFFFFF;stop-opacity:0.75"/>
				<stop  offset="1" style="stop-color:#FFFFFF;stop-opacity:0"/>
			</linearGradient>
			<path id="path4524" inkscape:connector-curvature="0" opacity="0.1" fill="url(#path4524_1_)" enable-background="new    " d="
				M198.138,430.229c0,1.149-0.934,2.083-2.083,2.083H8.701c-1.149,0-2.083-0.934-2.083-2.083v-31.995
				c0-1.153,0.934-2.087,2.083-2.087h187.361c1.142,0,2.075,0.934,2.075,2.087V430.229L198.138,430.229z"/>
		</g>
		<path id="path4526" opacity="0.2" fill="#FFFFFF" enable-background="new    " d="M200.134,370.906H2.09
			c-1.156,0-2.09,0.934-2.09,2.083v0.822c0-1.153,0.934-2.09,2.09-2.09h198.044c1.149,0,2.083,0.937,2.083,2.09v-0.822
			C202.217,371.84,201.283,370.906,200.134,370.906z"/>
		<path id="path4528" fill="#010101" d="M200.134,466.57H2.09c-1.156,0-2.09-0.934-2.09-2.082v0.632c0,1.142,0.934,2.075,2.09,2.075
			h198.044c1.149,0,2.083-0.934,2.083-2.075v-0.632C202.217,465.637,201.283,466.57,200.134,466.57z"/>
	</g>
</g>
<linearGradient id="SVGID_5_" gradientUnits="userSpaceOnUse" x1="59.9238" y1="246.3838" x2="528.0762" y2="246.3838">
	<stop  offset="0" style="stop-color:#E0E0E0"/>
	<stop  offset="0.0693" style="stop-color:#000000"/>
	<stop  offset="0.1854" style="stop-color:#808285"/>
	<stop  offset="0.3195" style="stop-color:#F1F2F2"/>
	<stop  offset="0.4362" style="stop-color:#000000"/>
	<stop  offset="0.5426" style="stop-color:#6D6E71"/>
	<stop  offset="0.6159" style="stop-color:#000000"/>
	<stop  offset="0.7277" style="stop-color:#58595B"/>
	<stop  offset="0.7979" style="stop-color:#FFFFFF"/>
	<stop  offset="0.8889" style="stop-color:#939598"/>
	<stop  offset="0.9399" style="stop-color:#58595B"/>
	<stop  offset="1" style="stop-color:#ADADAD"/>
</linearGradient>
<rect x="59.924" y="238.609" fill="url(#SVGID_5_)" stroke="#000000" stroke-width="2" stroke-miterlimit="10" width="468.152" height="15.549"/>
<g>
	<g>
		
			<rect x="17.997" y="394.939" transform="matrix(-0.9672 -0.2539 0.2539 -0.9672 -63.7235 784.1358)" fill-rule="evenodd" clip-rule="evenodd" fill="#EE2A7B" width="1.5" height="2.484"/>
		
			<rect x="16.865" y="399.248" transform="matrix(-0.9671 -0.2545 0.2545 -0.9671 -67.2921 792.2727)" fill-rule="evenodd" clip-rule="evenodd" fill="#EE2A7B" width="1.5" height="2.485"/>
		
			<rect x="15.736" y="403.544" transform="matrix(-0.9671 -0.2545 0.2545 -0.9671 -70.6062 800.4357)" fill-rule="evenodd" clip-rule="evenodd" fill="#EE2A7B" width="1.5" height="2.485"/>
	</g>
	<g>
		
			<rect x="21.399" y="381.991" transform="matrix(-0.9672 -0.2539 0.2539 -0.9672 -53.7437 759.5305)" fill-rule="evenodd" clip-rule="evenodd" fill="#EE2A7B" width="1.5" height="2.485"/>
		
			<rect x="20.267" y="386.302" transform="matrix(-0.9671 -0.2545 0.2545 -0.9671 -57.305 767.6725)" fill-rule="evenodd" clip-rule="evenodd" fill="#EE2A7B" width="1.5" height="2.485"/>
		
			<rect x="19.138" y="390.597" transform="matrix(-0.9671 -0.2545 0.2545 -0.9671 -60.6191 775.8354)" fill-rule="evenodd" clip-rule="evenodd" fill="#EE2A7B" width="1.5" height="2.485"/>
	</g>
	<g>
		
			<rect x="24.801" y="369.045" transform="matrix(-0.9672 -0.2539 0.2539 -0.9672 -43.764 734.926)" fill-rule="evenodd" clip-rule="evenodd" fill="#EE2A7B" width="1.5" height="2.485"/>
		
			<rect x="23.669" y="373.356" transform="matrix(-0.9672 -0.2539 0.2539 -0.9672 -47.086 743.1174)" fill-rule="evenodd" clip-rule="evenodd" fill="#EE2A7B" width="1.5" height="2.484"/>
		
			<rect x="22.54" y="377.652" transform="matrix(-0.9672 -0.2539 0.2539 -0.9672 -50.3976 751.2817)" fill-rule="evenodd" clip-rule="evenodd" fill="#EE2A7B" width="1.5" height="2.484"/>
	</g>
	<g>
		
			<rect x="28.203" y="356.098" transform="matrix(-0.9671 -0.2545 0.2545 -0.9671 -34.0064 710.2811)" fill-rule="evenodd" clip-rule="evenodd" fill="#EE2A7B" width="1.5" height="2.485"/>
		
			<rect x="27.07" y="360.408" transform="matrix(-0.9672 -0.2539 0.2539 -0.9672 -37.1062 718.5121)" fill-rule="evenodd" clip-rule="evenodd" fill="#EE2A7B" width="1.5" height="2.485"/>
		
			<rect x="25.941" y="364.704" transform="matrix(-0.9672 -0.2539 0.2539 -0.9672 -40.4178 726.6763)" fill-rule="evenodd" clip-rule="evenodd" fill="#EE2A7B" width="1.5" height="2.485"/>
	</g>
	<g>
		
			<rect x="31.604" y="343.152" transform="matrix(-0.9671 -0.2545 0.2545 -0.9671 -24.0194 685.6809)" fill-rule="evenodd" clip-rule="evenodd" fill="#EE2A7B" width="1.5" height="2.485"/>
		
			<rect x="30.472" y="347.462" transform="matrix(-0.9672 -0.2539 0.2539 -0.9672 -27.1265 693.9077)" fill-rule="evenodd" clip-rule="evenodd" fill="#EE2A7B" width="1.5" height="2.485"/>
		
			<rect x="29.343" y="351.758" transform="matrix(-0.9672 -0.2539 0.2539 -0.9672 -30.4381 702.072)" fill-rule="evenodd" clip-rule="evenodd" fill="#EE2A7B" width="1.5" height="2.485"/>
	</g>
	<g>
		
			<rect x="35.006" y="330.206" transform="matrix(-0.9672 -0.2539 0.2539 -0.9672 -13.8248 661.1119)" fill-rule="evenodd" clip-rule="evenodd" fill="#EE2A7B" width="1.5" height="2.484"/>
		
			<rect x="33.873" y="334.515" transform="matrix(-0.9671 -0.2545 0.2545 -0.9671 -17.3295 669.2739)" fill-rule="evenodd" clip-rule="evenodd" fill="#EE2A7B" width="1.501" height="2.485"/>
		
			<rect x="32.745" y="338.811" transform="matrix(-0.9671 -0.2545 0.2545 -0.9671 -20.6708 677.4326)" fill-rule="evenodd" clip-rule="evenodd" fill="#EE2A7B" width="1.5" height="2.485"/>
	</g>
	<g>
		
			<rect x="38.408" y="317.259" transform="matrix(-0.9672 -0.2539 0.2539 -0.9672 -3.845 636.5066)" fill-rule="evenodd" clip-rule="evenodd" fill="#EE2A7B" width="1.5" height="2.485"/>
		
			<rect x="37.275" y="321.569" transform="matrix(-0.9671 -0.2545 0.2545 -0.9671 -7.3434 644.6731)" fill-rule="evenodd" clip-rule="evenodd" fill="#EE2A7B" width="1.501" height="2.485"/>
		
			<rect x="36.147" y="325.865" transform="matrix(-0.9671 -0.2545 0.2545 -0.9671 -10.6838 652.8324)" fill-rule="evenodd" clip-rule="evenodd" fill="#EE2A7B" width="1.5" height="2.485"/>
	</g>
	<g>
		
			<rect x="41.81" y="304.313" transform="matrix(-0.9672 -0.2539 0.2539 -0.9672 6.1347 611.9022)" fill-rule="evenodd" clip-rule="evenodd" fill="#EE2A7B" width="1.5" height="2.485"/>
		
			<rect x="40.678" y="308.623" transform="matrix(-0.9672 -0.2539 0.2539 -0.9672 2.8122 620.0935)" fill-rule="evenodd" clip-rule="evenodd" fill="#EE2A7B" width="1.5" height="2.484"/>
		
			<rect x="39.549" y="312.919" transform="matrix(-0.9672 -0.2539 0.2539 -0.9672 -0.499 628.2579)" fill-rule="evenodd" clip-rule="evenodd" fill="#EE2A7B" width="1.5" height="2.484"/>
	</g>
	<g>
		
			<rect x="45.212" y="291.366" transform="matrix(-0.9671 -0.2545 0.2545 -0.9671 15.929 587.2781)" fill-rule="evenodd" clip-rule="evenodd" fill="#EE2A7B" width="1.5" height="2.485"/>
		
			<rect x="44.079" y="295.677" transform="matrix(-0.9672 -0.2539 0.2539 -0.9672 12.7919 595.4891)" fill-rule="evenodd" clip-rule="evenodd" fill="#EE2A7B" width="1.5" height="2.484"/>
		
			<rect x="42.95" y="299.973" transform="matrix(-0.9672 -0.2539 0.2539 -0.9672 9.5053 603.6562)" fill-rule="evenodd" clip-rule="evenodd" fill="#EE2A7B" width="1.5" height="2.484"/>
	</g>
	<g>
		
			<rect x="48.613" y="278.42" transform="matrix(-0.9671 -0.2545 0.2545 -0.9671 25.939 562.6797)" fill-rule="evenodd" clip-rule="evenodd" fill="#EE2A7B" width="1.501" height="2.485"/>
		
			<rect x="47.481" y="282.73" transform="matrix(-0.9672 -0.2539 0.2539 -0.9672 22.7712 570.8837)" fill-rule="evenodd" clip-rule="evenodd" fill="#EE2A7B" width="1.5" height="2.485"/>
		
			<rect x="46.352" y="287.026" transform="matrix(-0.9672 -0.2539 0.2539 -0.9672 19.4601 579.0481)" fill-rule="evenodd" clip-rule="evenodd" fill="#EE2A7B" width="1.5" height="2.485"/>
	</g>
	<g>
		
			<rect x="52.015" y="265.474" transform="matrix(-0.9672 -0.2539 0.2539 -0.9672 36.0959 538.0895)" fill-rule="evenodd" clip-rule="evenodd" fill="#EE2A7B" width="1.5" height="2.484"/>
		
			<rect x="50.883" y="269.783" transform="matrix(-0.9672 -0.2539 0.2539 -0.9672 32.7509 546.2793)" fill-rule="evenodd" clip-rule="evenodd" fill="#EE2A7B" width="1.5" height="2.485"/>
		
			<rect x="49.754" y="274.079" transform="matrix(-0.9672 -0.2539 0.2539 -0.9672 29.4397 554.4437)" fill-rule="evenodd" clip-rule="evenodd" fill="#EE2A7B" width="1.5" height="2.485"/>
	</g>
	<g>
		
			<rect x="55.417" y="252.527" transform="matrix(-0.9672 -0.2539 0.2539 -0.9672 46.0532 513.4827)" fill-rule="evenodd" clip-rule="evenodd" fill="#EE2A7B" width="1.5" height="2.485"/>
		
			<rect x="54.285" y="256.837" transform="matrix(-0.9671 -0.2545 0.2545 -0.9671 42.5648 521.6661)" fill-rule="evenodd" clip-rule="evenodd" fill="#EE2A7B" width="1.5" height="2.485"/>
		
			<rect x="53.156" y="261.133" transform="matrix(-0.9671 -0.2545 0.2545 -0.9671 39.2511 529.8292)" fill-rule="evenodd" clip-rule="evenodd" fill="#EE2A7B" width="1.5" height="2.485"/>
	</g>
	<g>
		
			<rect x="58.819" y="239.58" transform="matrix(-0.9672 -0.2539 0.2539 -0.9672 56.0329 488.8783)" fill-rule="evenodd" clip-rule="evenodd" fill="#EE2A7B" width="1.5" height="2.485"/>
		
			<rect x="57.687" y="243.891" transform="matrix(-0.9672 -0.2539 0.2539 -0.9672 52.7104 497.0695)" fill-rule="evenodd" clip-rule="evenodd" fill="#EE2A7B" width="1.5" height="2.484"/>
		
			<rect x="56.558" y="248.187" transform="matrix(-0.9672 -0.2539 0.2539 -0.9672 49.3988 505.2339)" fill-rule="evenodd" clip-rule="evenodd" fill="#EE2A7B" width="1.5" height="2.484"/>
	</g>
</g>
<g>
	<g>
		
			<rect x="196.03" y="400.846" transform="matrix(-0.4423 -0.8969 0.8969 -0.4423 -76.8394 756.4321)" fill-rule="evenodd" clip-rule="evenodd" fill="#EE2A7B" width="1.499" height="2.524"/>
		
			<rect x="191.968" y="402.847" transform="matrix(-0.442 -0.897 0.897 -0.442 -84.5923 755.5959)" fill-rule="evenodd" clip-rule="evenodd" fill="#EE2A7B" width="1.5" height="2.524"/>
		
			<rect x="187.921" y="404.842" transform="matrix(-0.442 -0.897 0.897 -0.442 -92.2178 754.8417)" fill-rule="evenodd" clip-rule="evenodd" fill="#EE2A7B" width="1.5" height="2.524"/>
	</g>
	<g>
		
			<rect x="208.228" y="394.835" transform="matrix(-0.442 -0.897 0.897 -0.442 -53.9586 758.6276)" fill-rule="evenodd" clip-rule="evenodd" fill="#EE2A7B" width="1.5" height="2.524"/>
		
			<rect x="204.167" y="396.836" transform="matrix(-0.442 -0.897 0.897 -0.442 -61.6096 757.8702)" fill-rule="evenodd" clip-rule="evenodd" fill="#EE2A7B" width="1.5" height="2.524"/>
		
			<rect x="200.119" y="398.83" transform="matrix(-0.442 -0.897 0.897 -0.442 -69.2357 757.1155)" fill-rule="evenodd" clip-rule="evenodd" fill="#EE2A7B" width="1.5" height="2.524"/>
	</g>
	<g>
		
			<rect x="220.427" y="388.823" transform="matrix(-0.4417 -0.8971 0.8971 -0.4417 -31.0842 760.8282)" fill-rule="evenodd" clip-rule="evenodd" fill="#EE2A7B" width="1.5" height="2.525"/>
		
			<rect x="216.366" y="390.824" transform="matrix(-0.4417 -0.8971 0.8971 -0.4417 -38.7343 760.0698)" fill-rule="evenodd" clip-rule="evenodd" fill="#EE2A7B" width="1.5" height="2.525"/>
		
			<rect x="212.318" y="392.82" transform="matrix(-0.4423 -0.8969 0.8969 -0.4423 -46.1483 759.4651)" fill-rule="evenodd" clip-rule="evenodd" fill="#EE2A7B" width="1.499" height="2.524"/>
	</g>
	<g>
		
			<rect x="232.625" y="382.812" transform="matrix(-0.442 -0.897 0.897 -0.442 -7.9939 763.1757)" fill-rule="evenodd" clip-rule="evenodd" fill="#EE2A7B" width="1.5" height="2.524"/>
		
			<rect x="228.564" y="384.814" transform="matrix(-0.442 -0.897 0.897 -0.442 -15.6452 762.419)" fill-rule="evenodd" clip-rule="evenodd" fill="#EE2A7B" width="1.5" height="2.524"/>
		
			<rect x="224.516" y="386.808" transform="matrix(-0.442 -0.897 0.897 -0.442 -23.271 761.6636)" fill-rule="evenodd" clip-rule="evenodd" fill="#EE2A7B" width="1.5" height="2.524"/>
	</g>
	<g>
		
			<rect x="244.824" y="376.801" transform="matrix(-0.442 -0.897 0.897 -0.442 14.9888 765.45)" fill-rule="evenodd" clip-rule="evenodd" fill="#EE2A7B" width="1.5" height="2.524"/>
		
			<rect x="240.763" y="378.802" transform="matrix(-0.442 -0.897 0.897 -0.442 7.3375 764.6933)" fill-rule="evenodd" clip-rule="evenodd" fill="#EE2A7B" width="1.5" height="2.524"/>
		
			<rect x="236.715" y="380.797" transform="matrix(-0.442 -0.897 0.897 -0.442 -0.2888 763.9385)" fill-rule="evenodd" clip-rule="evenodd" fill="#EE2A7B" width="1.5" height="2.524"/>
	</g>
	<g>
		
			<rect x="257.022" y="370.79" transform="matrix(-0.442 -0.897 0.897 -0.442 37.9704 767.7245)" fill-rule="evenodd" clip-rule="evenodd" fill="#EE2A7B" width="1.5" height="2.524"/>
		
			<rect x="252.961" y="372.791" transform="matrix(-0.442 -0.897 0.897 -0.442 30.3195 766.9671)" fill-rule="evenodd" clip-rule="evenodd" fill="#EE2A7B" width="1.5" height="2.524"/>
		
			<rect x="248.914" y="374.786" transform="matrix(-0.4417 -0.8971 0.8971 -0.4417 22.58 766.1465)" fill-rule="evenodd" clip-rule="evenodd" fill="#EE2A7B" width="1.5" height="2.524"/>
	</g>
	<g>
		
			<rect x="269.221" y="364.779" transform="matrix(-0.442 -0.897 0.897 -0.442 60.9531 769.9988)" fill-rule="evenodd" clip-rule="evenodd" fill="#EE2A7B" width="1.5" height="2.524"/>
		
			<rect x="265.16" y="366.781" transform="matrix(-0.4423 -0.8969 0.8969 -0.4423 53.4172 769.3032)" fill-rule="evenodd" clip-rule="evenodd" fill="#EE2A7B" width="1.499" height="2.524"/>
		
			<rect x="261.112" y="368.774" transform="matrix(-0.442 -0.897 0.897 -0.442 45.676 768.4866)" fill-rule="evenodd" clip-rule="evenodd" fill="#EE2A7B" width="1.5" height="2.524"/>
	</g>
	<g>
		
			<rect x="281.419" y="358.768" transform="matrix(-0.442 -0.897 0.897 -0.442 83.9351 772.2726)" fill-rule="evenodd" clip-rule="evenodd" fill="#EE2A7B" width="1.5" height="2.524"/>
		
			<rect x="277.358" y="360.769" transform="matrix(-0.442 -0.897 0.897 -0.442 76.2838 771.5159)" fill-rule="evenodd" clip-rule="evenodd" fill="#EE2A7B" width="1.5" height="2.524"/>
		
			<rect x="273.311" y="362.764" transform="matrix(-0.442 -0.897 0.897 -0.442 68.6565 770.7607)" fill-rule="evenodd" clip-rule="evenodd" fill="#EE2A7B" width="1.499" height="2.524"/>
	</g>
	<g>
		
			<rect x="293.618" y="352.757" transform="matrix(-0.4423 -0.8969 0.8969 -0.4423 107.0388 774.6017)" fill-rule="evenodd" clip-rule="evenodd" fill="#EE2A7B" width="1.499" height="2.524"/>
		
			<rect x="289.557" y="354.758" transform="matrix(-0.442 -0.897 0.897 -0.442 99.2665 773.7902)" fill-rule="evenodd" clip-rule="evenodd" fill="#EE2A7B" width="1.5" height="2.524"/>
		
			<rect x="285.509" y="356.753" transform="matrix(-0.442 -0.897 0.897 -0.442 91.6403 773.0354)" fill-rule="evenodd" clip-rule="evenodd" fill="#EE2A7B" width="1.5" height="2.524"/>
	</g>
	<g>
		
			<rect x="305.816" y="346.746" transform="matrix(-0.442 -0.897 0.897 -0.442 129.8998 776.8217)" fill-rule="evenodd" clip-rule="evenodd" fill="#EE2A7B" width="1.5" height="2.524"/>
		
			<rect x="301.755" y="348.747" transform="matrix(-0.442 -0.897 0.897 -0.442 122.2489 776.0642)" fill-rule="evenodd" clip-rule="evenodd" fill="#EE2A7B" width="1.5" height="2.523"/>
		
			<rect x="297.707" y="350.741" transform="matrix(-0.442 -0.897 0.897 -0.442 114.6227 775.3094)" fill-rule="evenodd" clip-rule="evenodd" fill="#EE2A7B" width="1.5" height="2.524"/>
	</g>
	<g>
		
			<rect x="318.015" y="340.735" transform="matrix(-0.442 -0.897 0.897 -0.442 152.8825 779.0959)" fill-rule="evenodd" clip-rule="evenodd" fill="#EE2A7B" width="1.5" height="2.524"/>
		
			<rect x="313.954" y="342.735" transform="matrix(-0.442 -0.897 0.897 -0.442 145.2316 778.3385)" fill-rule="evenodd" clip-rule="evenodd" fill="#EE2A7B" width="1.5" height="2.525"/>
		
			<rect x="309.907" y="344.73" transform="matrix(-0.4423 -0.8969 0.8969 -0.4423 137.7292 777.6342)" fill-rule="evenodd" clip-rule="evenodd" fill="#EE2A7B" width="1.499" height="2.524"/>
	</g>
	<g>
		
			<rect x="330.214" y="334.724" transform="matrix(-0.4423 -0.8969 0.8969 -0.4423 175.9922 781.415)" fill-rule="evenodd" clip-rule="evenodd" fill="#EE2A7B" width="1.499" height="2.523"/>
		
			<rect x="326.153" y="336.725" transform="matrix(-0.4423 -0.8969 0.8969 -0.4423 168.3405 780.6587)" fill-rule="evenodd" clip-rule="evenodd" fill="#EE2A7B" width="1.499" height="2.524"/>
		
			<rect x="322.104" y="338.719" transform="matrix(-0.442 -0.897 0.897 -0.442 160.5874 779.8576)" fill-rule="evenodd" clip-rule="evenodd" fill="#EE2A7B" width="1.5" height="2.525"/>
	</g>
	<g>
		
			<rect x="342.412" y="328.712" transform="matrix(-0.442 -0.897 0.897 -0.442 198.8472 783.644)" fill-rule="evenodd" clip-rule="evenodd" fill="#EE2A7B" width="1.5" height="2.525"/>
		
			<rect x="338.351" y="330.714" transform="matrix(-0.442 -0.897 0.897 -0.442 191.1959 782.8873)" fill-rule="evenodd" clip-rule="evenodd" fill="#EE2A7B" width="1.5" height="2.523"/>
		
			<rect x="334.303" y="332.708" transform="matrix(-0.442 -0.897 0.897 -0.442 183.5697 782.1326)" fill-rule="evenodd" clip-rule="evenodd" fill="#EE2A7B" width="1.5" height="2.524"/>
	</g>
	<g>
		
			<rect x="354.61" y="322.701" transform="matrix(-0.442 -0.897 0.897 -0.442 221.8288 785.9186)" fill-rule="evenodd" clip-rule="evenodd" fill="#EE2A7B" width="1.5" height="2.525"/>
		
			<rect x="350.549" y="324.702" transform="matrix(-0.442 -0.897 0.897 -0.442 214.1779 785.1611)" fill-rule="evenodd" clip-rule="evenodd" fill="#EE2A7B" width="1.5" height="2.524"/>
		
			<rect x="346.502" y="326.697" transform="matrix(-0.442 -0.897 0.897 -0.442 206.5524 784.4069)" fill-rule="evenodd" clip-rule="evenodd" fill="#EE2A7B" width="1.5" height="2.524"/>
	</g>
	<g>
		
			<rect x="366.809" y="316.69" transform="matrix(-0.442 -0.897 0.897 -0.442 244.8115 788.1928)" fill-rule="evenodd" clip-rule="evenodd" fill="#EE2A7B" width="1.5" height="2.523"/>
		
			<rect x="362.748" y="318.691" transform="matrix(-0.4423 -0.8969 0.8969 -0.4423 237.2947 787.4724)" fill-rule="evenodd" clip-rule="evenodd" fill="#EE2A7B" width="1.499" height="2.524"/>
		
			<rect x="358.7" y="320.685" transform="matrix(-0.442 -0.897 0.897 -0.442 229.5344 786.6807)" fill-rule="evenodd" clip-rule="evenodd" fill="#EE2A7B" width="1.5" height="2.525"/>
	</g>
	<g>
		
			<rect x="379.007" y="310.679" transform="matrix(-0.442 -0.897 0.897 -0.442 267.7935 790.4666)" fill-rule="evenodd" clip-rule="evenodd" fill="#EE2A7B" width="1.5" height="2.524"/>
		
			<rect x="374.946" y="312.68" transform="matrix(-0.442 -0.897 0.897 -0.442 260.1426 789.7092)" fill-rule="evenodd" clip-rule="evenodd" fill="#EE2A7B" width="1.5" height="2.525"/>
		
			<rect x="370.899" y="314.675" transform="matrix(-0.442 -0.897 0.897 -0.442 252.5167 788.9557)" fill-rule="evenodd" clip-rule="evenodd" fill="#EE2A7B" width="1.5" height="2.524"/>
	</g>
	<g>
		
			<rect x="391.206" y="304.668" transform="matrix(-0.4423 -0.8969 0.8969 -0.4423 290.9159 792.7707)" fill-rule="evenodd" clip-rule="evenodd" fill="#EE2A7B" width="1.499" height="2.524"/>
		
			<rect x="387.145" y="306.669" transform="matrix(-0.442 -0.897 0.897 -0.442 283.1249 791.9842)" fill-rule="evenodd" clip-rule="evenodd" fill="#EE2A7B" width="1.5" height="2.524"/>
		
			<rect x="383.097" y="308.664" transform="matrix(-0.442 -0.897 0.897 -0.442 275.4987 791.2295)" fill-rule="evenodd" clip-rule="evenodd" fill="#EE2A7B" width="1.5" height="2.523"/>
	</g>
	<g>
		
			<rect x="403.405" y="298.657" transform="matrix(-0.4415 -0.8973 0.8973 -0.4415 313.4694 794.963)" fill-rule="evenodd" clip-rule="evenodd" fill="#EE2A7B" width="1.5" height="2.524"/>
		
			<rect x="399.344" y="300.658" transform="matrix(-0.442 -0.897 0.897 -0.442 306.1076 794.2585)" fill-rule="evenodd" clip-rule="evenodd" fill="#EE2A7B" width="1.5" height="2.524"/>
		
			<rect x="395.296" y="302.652" transform="matrix(-0.442 -0.897 0.897 -0.442 298.4814 793.5037)" fill-rule="evenodd" clip-rule="evenodd" fill="#EE2A7B" width="1.5" height="2.525"/>
	</g>
	<g>
		
			<rect x="415.603" y="292.646" transform="matrix(-0.442 -0.897 0.897 -0.442 336.7405 797.2897)" fill-rule="evenodd" clip-rule="evenodd" fill="#EE2A7B" width="1.5" height="2.524"/>
		
			<rect x="411.542" y="294.646" transform="matrix(-0.442 -0.897 0.897 -0.442 329.0896 796.5323)" fill-rule="evenodd" clip-rule="evenodd" fill="#EE2A7B" width="1.5" height="2.525"/>
		
			<rect x="407.494" y="296.642" transform="matrix(-0.4423 -0.8969 0.8969 -0.4423 321.6063 795.8032)" fill-rule="evenodd" clip-rule="evenodd" fill="#EE2A7B" width="1.499" height="2.524"/>
	</g>
	<g>
		
			<rect x="427.802" y="286.634" transform="matrix(-0.442 -0.897 0.897 -0.442 359.7233 799.564)" fill-rule="evenodd" clip-rule="evenodd" fill="#EE2A7B" width="1.5" height="2.524"/>
		
			<rect x="423.741" y="288.636" transform="matrix(-0.442 -0.897 0.897 -0.442 352.0719 798.8073)" fill-rule="evenodd" clip-rule="evenodd" fill="#EE2A7B" width="1.5" height="2.524"/>
		
			<rect x="419.693" y="290.63" transform="matrix(-0.442 -0.897 0.897 -0.442 344.4462 798.0518)" fill-rule="evenodd" clip-rule="evenodd" fill="#EE2A7B" width="1.5" height="2.524"/>
	</g>
	<g>
		
			<rect x="440" y="280.623" transform="matrix(-0.442 -0.897 0.897 -0.442 382.7053 801.8378)" fill-rule="evenodd" clip-rule="evenodd" fill="#EE2A7B" width="1.5" height="2.525"/>
		
			<rect x="435.939" y="282.625" transform="matrix(-0.442 -0.897 0.897 -0.442 375.054 801.0811)" fill-rule="evenodd" clip-rule="evenodd" fill="#EE2A7B" width="1.5" height="2.523"/>
		
			<rect x="431.892" y="284.619" transform="matrix(-0.442 -0.897 0.897 -0.442 367.4284 800.3268)" fill-rule="evenodd" clip-rule="evenodd" fill="#EE2A7B" width="1.5" height="2.525"/>
	</g>
	<g>
		
			<rect x="452.199" y="274.613" transform="matrix(-0.442 -0.897 0.897 -0.442 405.6876 804.1128)" fill-rule="evenodd" clip-rule="evenodd" fill="#EE2A7B" width="1.5" height="2.524"/>
		
			<rect x="448.138" y="276.613" transform="matrix(-0.442 -0.897 0.897 -0.442 398.0367 803.3554)" fill-rule="evenodd" clip-rule="evenodd" fill="#EE2A7B" width="1.5" height="2.525"/>
		
			<rect x="444.09" y="278.608" transform="matrix(-0.442 -0.897 0.897 -0.442 390.4105 802.6006)" fill-rule="evenodd" clip-rule="evenodd" fill="#EE2A7B" width="1.5" height="2.524"/>
	</g>
	<g>
		
			<rect x="464.397" y="268.601" transform="matrix(-0.442 -0.897 0.897 -0.442 428.6703 806.3871)" fill-rule="evenodd" clip-rule="evenodd" fill="#EE2A7B" width="1.5" height="2.524"/>
		
			<rect x="460.337" y="270.603" transform="matrix(-0.4417 -0.8971 0.8971 -0.4417 420.8606 805.6185)" fill-rule="evenodd" clip-rule="evenodd" fill="#EE2A7B" width="1.499" height="2.524"/>
		
			<rect x="456.288" y="272.597" transform="matrix(-0.442 -0.897 0.897 -0.442 413.3932 804.8749)" fill-rule="evenodd" clip-rule="evenodd" fill="#EE2A7B" width="1.5" height="2.524"/>
	</g>
	<g>
		
			<rect x="476.596" y="262.59" transform="matrix(-0.442 -0.897 0.897 -0.442 451.6523 808.6609)" fill-rule="evenodd" clip-rule="evenodd" fill="#EE2A7B" width="1.5" height="2.525"/>
		
			<rect x="472.535" y="264.591" transform="matrix(-0.442 -0.897 0.897 -0.442 444.0014 807.9035)" fill-rule="evenodd" clip-rule="evenodd" fill="#EE2A7B" width="1.5" height="2.524"/>
		
			<rect x="468.487" y="266.586" transform="matrix(-0.4423 -0.8969 0.8969 -0.4423 436.53 807.1589)" fill-rule="evenodd" clip-rule="evenodd" fill="#EE2A7B" width="1.499" height="2.523"/>
	</g>
	<g>
		
			<rect x="488.795" y="256.58" transform="matrix(-0.4423 -0.8969 0.8969 -0.4423 474.7938 810.9401)" fill-rule="evenodd" clip-rule="evenodd" fill="#EE2A7B" width="1.499" height="2.523"/>
		
			<rect x="484.733" y="258.58" transform="matrix(-0.442 -0.897 0.897 -0.442 466.9837 810.1785)" fill-rule="evenodd" clip-rule="evenodd" fill="#EE2A7B" width="1.5" height="2.525"/>
		
			<rect x="480.685" y="260.575" transform="matrix(-0.442 -0.897 0.897 -0.442 459.3575 809.4237)" fill-rule="evenodd" clip-rule="evenodd" fill="#EE2A7B" width="1.5" height="2.524"/>
	</g>
	<g>
		
			<rect x="500.993" y="250.568" transform="matrix(-0.442 -0.897 0.897 -0.442 497.6166 813.2097)" fill-rule="evenodd" clip-rule="evenodd" fill="#EE2A7B" width="1.5" height="2.523"/>
		
			<rect x="496.932" y="252.569" transform="matrix(-0.442 -0.897 0.897 -0.442 489.9657 812.4523)" fill-rule="evenodd" clip-rule="evenodd" fill="#EE2A7B" width="1.5" height="2.524"/>
		
			<rect x="492.884" y="254.563" transform="matrix(-0.442 -0.897 0.897 -0.442 482.3395 811.6975)" fill-rule="evenodd" clip-rule="evenodd" fill="#EE2A7B" width="1.5" height="2.525"/>
	</g>
	<g>
		
			<rect x="513.191" y="244.556" transform="matrix(-0.442 -0.897 0.897 -0.442 520.5994 815.4839)" fill-rule="evenodd" clip-rule="evenodd" fill="#EE2A7B" width="1.5" height="2.525"/>
		
			<rect x="509.13" y="246.558" transform="matrix(-0.442 -0.897 0.897 -0.442 512.9484 814.7266)" fill-rule="evenodd" clip-rule="evenodd" fill="#EE2A7B" width="1.5" height="2.524"/>
		
			<rect x="505.083" y="248.553" transform="matrix(-0.4423 -0.8969 0.8969 -0.4423 505.4841 813.9726)" fill-rule="evenodd" clip-rule="evenodd" fill="#EE2A7B" width="1.499" height="2.523"/>
	</g>
	<g>
		
			<rect x="525.39" y="238.546" transform="matrix(-0.4423 -0.8969 0.8969 -0.4423 543.7473 817.7534)" fill-rule="evenodd" clip-rule="evenodd" fill="#EE2A7B" width="1.499" height="2.524"/>
		
			<rect x="521.329" y="240.547" transform="matrix(-0.4423 -0.8969 0.8969 -0.4423 536.0955 816.9971)" fill-rule="evenodd" clip-rule="evenodd" fill="#EE2A7B" width="1.499" height="2.523"/>
		
			<rect x="517.281" y="242.541" transform="matrix(-0.442 -0.897 0.897 -0.442 528.3049 816.2461)" fill-rule="evenodd" clip-rule="evenodd" fill="#EE2A7B" width="1.5" height="2.525"/>
	</g>
</g>
<g>
	<g>
		
			<rect x="18.232" y="396.751" transform="matrix(-0.9615 -0.2747 0.2747 -0.9615 -72.1033 785.8889)" fill-rule="evenodd" clip-rule="evenodd" fill="#EE2A7B" width="1.5" height="2.486"/>
		
			<rect x="17.006" y="401.037" transform="matrix(-0.9615 -0.2748 0.2748 -0.9615 -75.7222 793.9509)" fill-rule="evenodd" clip-rule="evenodd" fill="#EE2A7B" width="1.5" height="2.486"/>
		
			<rect x="15.782" y="405.309" transform="matrix(-0.9615 -0.2747 0.2747 -0.9615 -79.2597 802.0038)" fill-rule="evenodd" clip-rule="evenodd" fill="#EE2A7B" width="1.5" height="2.486"/>
	</g>
	<g>
		
			<rect x="21.918" y="383.875" transform="matrix(-0.9613 -0.2754 0.2754 -0.9613 -61.6067 761.5856)" fill-rule="evenodd" clip-rule="evenodd" fill="#EE2A7B" width="1.5" height="2.486"/>
		
			<rect x="20.69" y="388.161" transform="matrix(-0.9614 -0.2753 0.2753 -0.9614 -65.1592 769.6619)" fill-rule="evenodd" clip-rule="evenodd" fill="#EE2A7B" width="1.5" height="2.486"/>
		
			<rect x="19.468" y="392.434" transform="matrix(-0.9613 -0.2754 0.2754 -0.9613 -68.7685 777.697)" fill-rule="evenodd" clip-rule="evenodd" fill="#EE2A7B" width="1.5" height="2.486"/>
	</g>
	<g>
		
			<rect x="25.603" y="370.999" transform="matrix(-0.9614 -0.2753 0.2753 -0.9614 -50.7999 737.3544)" fill-rule="evenodd" clip-rule="evenodd" fill="#EE2A7B" width="1.5" height="2.487"/>
		
			<rect x="24.376" y="375.286" transform="matrix(-0.9613 -0.2754 0.2754 -0.9613 -54.4193 745.4171)" fill-rule="evenodd" clip-rule="evenodd" fill="#EE2A7B" width="1.5" height="2.486"/>
		
			<rect x="23.153" y="379.558" transform="matrix(-0.9614 -0.2753 0.2753 -0.9614 -57.961 753.4663)" fill-rule="evenodd" clip-rule="evenodd" fill="#EE2A7B" width="1.5" height="2.487"/>
	</g>
	<g>
		
			<rect x="29.288" y="358.124" transform="matrix(-0.9613 -0.2754 0.2754 -0.9613 -40.0585 713.1094)" fill-rule="evenodd" clip-rule="evenodd" fill="#EE2A7B" width="1.5" height="2.486"/>
		
			<rect x="28.061" y="362.411" transform="matrix(-0.9615 -0.2747 0.2747 -0.9615 -43.3894 721.2307)" fill-rule="evenodd" clip-rule="evenodd" fill="#EE2A7B" width="1.5" height="2.486"/>
		
			<rect x="26.839" y="366.683" transform="matrix(-0.9615 -0.2748 0.2748 -0.9615 -46.9942 729.2687)" fill-rule="evenodd" clip-rule="evenodd" fill="#EE2A7B" width="1.5" height="2.486"/>
	</g>
	<g>
		
			<rect x="32.973" y="345.249" transform="matrix(-0.9614 -0.2753 0.2753 -0.9614 -29.2538 688.8779)" fill-rule="evenodd" clip-rule="evenodd" fill="#EE2A7B" width="1.5" height="2.486"/>
		
			<rect x="31.747" y="349.535" transform="matrix(-0.9613 -0.2754 0.2754 -0.9613 -32.8711 696.9409)" fill-rule="evenodd" clip-rule="evenodd" fill="#EE2A7B" width="1.5" height="2.486"/>
		
			<rect x="30.523" y="353.808" transform="matrix(-0.9614 -0.2753 0.2753 -0.9614 -36.4149 704.9899)" fill-rule="evenodd" clip-rule="evenodd" fill="#EE2A7B" width="1.5" height="2.486"/>
	</g>
	<g>
		
			<rect x="36.659" y="332.374" transform="matrix(-0.9615 -0.2748 0.2748 -0.9615 -18.3031 664.6691)" fill-rule="evenodd" clip-rule="evenodd" fill="#EE2A7B" width="1.5" height="2.486"/>
		
			<rect x="35.432" y="336.66" transform="matrix(-0.9614 -0.2753 0.2753 -0.9614 -22.067 672.708)" fill-rule="evenodd" clip-rule="evenodd" fill="#EE2A7B" width="1.5" height="2.487"/>
		
			<rect x="34.209" y="340.932" transform="matrix(-0.9613 -0.2754 0.2754 -0.9613 -25.6722 680.7457)" fill-rule="evenodd" clip-rule="evenodd" fill="#EE2A7B" width="1.5" height="2.487"/>
	</g>
	<g>
		
			<rect x="40.344" y="319.499" transform="matrix(-0.9615 -0.2747 0.2747 -0.9615 -7.5077 640.4319)" fill-rule="evenodd" clip-rule="evenodd" fill="#EE2A7B" width="1.5" height="2.486"/>
		
			<rect x="39.117" y="323.785" transform="matrix(-0.9615 -0.2748 0.2748 -0.9615 -11.1205 648.4977)" fill-rule="evenodd" clip-rule="evenodd" fill="#EE2A7B" width="1.5" height="2.486"/>
		
			<rect x="37.894" y="328.057" transform="matrix(-0.9615 -0.2747 0.2747 -0.9615 -14.6641 656.5468)" fill-rule="evenodd" clip-rule="evenodd" fill="#EE2A7B" width="1.5" height="2.486"/>
	</g>
	<g>
		
			<rect x="44.029" y="306.623" transform="matrix(-0.9613 -0.2754 0.2754 -0.9613 3.0377 616.1589)" fill-rule="evenodd" clip-rule="evenodd" fill="#EE2A7B" width="1.5" height="2.486"/>
		
			<rect x="42.802" y="310.91" transform="matrix(-0.9614 -0.2753 0.2753 -0.9614 -0.5209 624.2316)" fill-rule="evenodd" clip-rule="evenodd" fill="#EE2A7B" width="1.5" height="2.486"/>
		
			<rect x="41.58" y="315.182" transform="matrix(-0.9613 -0.2754 0.2754 -0.9613 -4.1241 632.2705)" fill-rule="evenodd" clip-rule="evenodd" fill="#EE2A7B" width="1.5" height="2.486"/>
	</g>
	<g>
		
			<rect x="47.714" y="293.747" transform="matrix(-0.9614 -0.2753 0.2753 -0.9614 13.8384 591.924)" fill-rule="evenodd" clip-rule="evenodd" fill="#EE2A7B" width="1.5" height="2.487"/>
		
			<rect x="46.488" y="298.035" transform="matrix(-0.9613 -0.2754 0.2754 -0.9613 10.2251 599.9905)" fill-rule="evenodd" clip-rule="evenodd" fill="#EE2A7B" width="1.5" height="2.486"/>
		
			<rect x="45.265" y="302.306" transform="matrix(-0.9614 -0.2753 0.2753 -0.9614 6.6773 608.0359)" fill-rule="evenodd" clip-rule="evenodd" fill="#EE2A7B" width="1.5" height="2.487"/>
	</g>
	<g>
		
			<rect x="51.4" y="280.872" transform="matrix(-0.9613 -0.2754 0.2754 -0.9613 24.5859 567.6828)" fill-rule="evenodd" clip-rule="evenodd" fill="#EE2A7B" width="1.5" height="2.486"/>
		
			<rect x="50.173" y="285.159" transform="matrix(-0.9615 -0.2747 0.2747 -0.9615 21.2062 575.7737)" fill-rule="evenodd" clip-rule="evenodd" fill="#EE2A7B" width="1.5" height="2.486"/>
		
			<rect x="48.95" y="289.431" transform="matrix(-0.9615 -0.2748 0.2748 -0.9615 17.6075 583.8154)" fill-rule="evenodd" clip-rule="evenodd" fill="#EE2A7B" width="1.5" height="2.486"/>
	</g>
	<g>
		
			<rect x="55.085" y="267.997" transform="matrix(-0.9614 -0.2753 0.2753 -0.9614 35.3845 543.4475)" fill-rule="evenodd" clip-rule="evenodd" fill="#EE2A7B" width="1.5" height="2.486"/>
		
			<rect x="53.858" y="272.284" transform="matrix(-0.9613 -0.2754 0.2754 -0.9613 31.7733 551.5143)" fill-rule="evenodd" clip-rule="evenodd" fill="#EE2A7B" width="1.5" height="2.486"/>
		
			<rect x="52.635" y="276.556" transform="matrix(-0.9614 -0.2753 0.2753 -0.9614 28.2234 559.5594)" fill-rule="evenodd" clip-rule="evenodd" fill="#EE2A7B" width="1.5" height="2.486"/>
	</g>
	<g>
		
			<rect x="58.771" y="255.122" transform="matrix(-0.9615 -0.2748 0.2748 -0.9615 46.2986 519.2159)" fill-rule="evenodd" clip-rule="evenodd" fill="#EE2A7B" width="1.5" height="2.486"/>
		
			<rect x="57.544" y="259.408" transform="matrix(-0.9614 -0.2753 0.2753 -0.9614 42.5713 527.2776)" fill-rule="evenodd" clip-rule="evenodd" fill="#EE2A7B" width="1.5" height="2.487"/>
		
			<rect x="56.321" y="263.68" transform="matrix(-0.9613 -0.2754 0.2754 -0.9613 38.9722 535.3192)" fill-rule="evenodd" clip-rule="evenodd" fill="#EE2A7B" width="1.5" height="2.487"/>
	</g>
</g>
<g>
	<g>
		
			<rect x="196.023" y="403.028" transform="matrix(-0.4122 -0.9111 0.9111 -0.4122 -90.4329 750.1997)" fill-rule="evenodd" clip-rule="evenodd" fill="#EE2A7B" width="1.5" height="2.485"/>
		
			<rect x="191.962" y="404.866" transform="matrix(-0.4122 -0.9111 0.9111 -0.4122 -97.842 749.0947)" fill-rule="evenodd" clip-rule="evenodd" fill="#EE2A7B" width="1.5" height="2.485"/>
		
			<rect x="187.915" y="406.696" transform="matrix(-0.4122 -0.9111 0.9111 -0.4122 -105.2263 747.9919)" fill-rule="evenodd" clip-rule="evenodd" fill="#EE2A7B" width="1.5" height="2.485"/>
	</g>
	<g>
		
			<rect x="208.222" y="397.51" transform="matrix(-0.4125 -0.911 0.911 -0.4125 -68.0731 753.6029)" fill-rule="evenodd" clip-rule="evenodd" fill="#EE2A7B" width="1.5" height="2.485"/>
		
			<rect x="204.16" y="399.347" transform="matrix(-0.4123 -0.9111 0.9111 -0.4123 -75.5771 752.4229)" fill-rule="evenodd" clip-rule="evenodd" fill="#EE2A7B" width="1.501" height="2.485"/>
		
			<rect x="200.113" y="401.178" transform="matrix(-0.412 -0.9112 0.9112 -0.412 -83.0651 751.2369)" fill-rule="evenodd" clip-rule="evenodd" fill="#EE2A7B" width="1.5" height="2.485"/>
	</g>
	<g>
		
			<rect x="220.42" y="391.991" transform="matrix(-0.412 -0.9112 0.9112 -0.412 -46.021 756.7693)" fill-rule="evenodd" clip-rule="evenodd" fill="#EE2A7B" width="1.5" height="2.485"/>
		
			<rect x="216.359" y="393.829" transform="matrix(-0.4122 -0.9111 0.9111 -0.4122 -53.3326 755.736)" fill-rule="evenodd" clip-rule="evenodd" fill="#EE2A7B" width="1.5" height="2.485"/>
		
			<rect x="212.312" y="395.66" transform="matrix(-0.4122 -0.9111 0.9111 -0.4122 -60.7169 754.6342)" fill-rule="evenodd" clip-rule="evenodd" fill="#EE2A7B" width="1.5" height="2.486"/>
	</g>
	<g>
		
			<rect x="232.619" y="386.473" transform="matrix(-0.4122 -0.9111 0.9111 -0.4122 -23.6686 760.1622)" fill-rule="evenodd" clip-rule="evenodd" fill="#EE2A7B" width="1.5" height="2.485"/>
		
			<rect x="228.558" y="388.31" transform="matrix(-0.4122 -0.9111 0.9111 -0.4122 -31.0773 759.0565)" fill-rule="evenodd" clip-rule="evenodd" fill="#EE2A7B" width="1.5" height="2.485"/>
		
			<rect x="224.51" y="390.141" transform="matrix(-0.4122 -0.9111 0.9111 -0.4122 -38.462 757.9544)" fill-rule="evenodd" clip-rule="evenodd" fill="#EE2A7B" width="1.5" height="2.485"/>
	</g>
	<g>
		
			<rect x="244.817" y="380.955" transform="matrix(-0.4122 -0.9111 0.9111 -0.4122 -1.4144 763.483)" fill-rule="evenodd" clip-rule="evenodd" fill="#EE2A7B" width="1.5" height="2.485"/>
		
			<rect x="240.756" y="382.792" transform="matrix(-0.412 -0.9112 0.9112 -0.412 -8.9247 762.3101)" fill-rule="evenodd" clip-rule="evenodd" fill="#EE2A7B" width="1.5" height="2.485"/>
		
			<rect x="236.708" y="384.623" transform="matrix(-0.4123 -0.9111 0.9111 -0.4123 -16.197 761.2826)" fill-rule="evenodd" clip-rule="evenodd" fill="#EE2A7B" width="1.501" height="2.485"/>
	</g>
	<g>
		
			<rect x="257.016" y="375.437" transform="matrix(-0.412 -0.9112 0.9112 -0.412 20.7362 766.7399)" fill-rule="evenodd" clip-rule="evenodd" fill="#EE2A7B" width="1.5" height="2.485"/>
		
			<rect x="252.955" y="377.274" transform="matrix(-0.4122 -0.9111 0.9111 -0.4122 13.4317 765.6984)" fill-rule="evenodd" clip-rule="evenodd" fill="#EE2A7B" width="1.5" height="2.485"/>
		
			<rect x="248.907" y="379.105" transform="matrix(-0.412 -0.9112 0.9112 -0.412 5.9443 764.5303)" fill-rule="evenodd" clip-rule="evenodd" fill="#EE2A7B" width="1.5" height="2.485"/>
	</g>
	<g>
		
			<rect x="269.215" y="369.918" transform="matrix(-0.4122 -0.9111 0.9111 -0.4122 43.0953 770.1245)" fill-rule="evenodd" clip-rule="evenodd" fill="#EE2A7B" width="1.5" height="2.486"/>
		
			<rect x="265.154" y="371.755" transform="matrix(-0.4122 -0.9111 0.9111 -0.4122 35.6866 769.0187)" fill-rule="evenodd" clip-rule="evenodd" fill="#EE2A7B" width="1.5" height="2.486"/>
		
			<rect x="261.106" y="373.587" transform="matrix(-0.4125 -0.911 0.911 -0.4125 28.4185 767.986)" fill-rule="evenodd" clip-rule="evenodd" fill="#EE2A7B" width="1.5" height="2.485"/>
	</g>
	<g>
		
			<rect x="281.413" y="364.401" transform="matrix(-0.4122 -0.9111 0.9111 -0.4122 65.3498 773.4456)" fill-rule="evenodd" clip-rule="evenodd" fill="#EE2A7B" width="1.5" height="2.485"/>
		
			<rect x="277.352" y="366.237" transform="matrix(-0.412 -0.9112 0.9112 -0.412 57.8325 772.2806)" fill-rule="evenodd" clip-rule="evenodd" fill="#EE2A7B" width="1.5" height="2.485"/>
		
			<rect x="273.304" y="368.068" transform="matrix(-0.412 -0.9112 0.9112 -0.412 50.4485 771.1777)" fill-rule="evenodd" clip-rule="evenodd" fill="#EE2A7B" width="1.5" height="2.485"/>
	</g>
	<g>
		
			<rect x="293.611" y="358.882" transform="matrix(-0.4123 -0.9111 0.9111 -0.4123 87.6165 776.7716)" fill-rule="evenodd" clip-rule="evenodd" fill="#EE2A7B" width="1.501" height="2.485"/>
		
			<rect x="289.55" y="360.719" transform="matrix(-0.4123 -0.9111 0.9111 -0.4123 80.2077 775.666)" fill-rule="evenodd" clip-rule="evenodd" fill="#EE2A7B" width="1.501" height="2.485"/>
		
			<rect x="285.502" y="362.55" transform="matrix(-0.412 -0.9112 0.9112 -0.412 72.7014 774.501)" fill-rule="evenodd" clip-rule="evenodd" fill="#EE2A7B" width="1.5" height="2.485"/>
	</g>
	<g>
		
			<rect x="305.81" y="353.364" transform="matrix(-0.4122 -0.9111 0.9111 -0.4122 109.8596 780.087)" fill-rule="evenodd" clip-rule="evenodd" fill="#EE2A7B" width="1.5" height="2.485"/>
		
			<rect x="301.749" y="355.201" transform="matrix(-0.4122 -0.9111 0.9111 -0.4122 102.4509 778.9813)" fill-rule="evenodd" clip-rule="evenodd" fill="#EE2A7B" width="1.5" height="2.486"/>
		
			<rect x="297.701" y="357.032" transform="matrix(-0.4122 -0.9111 0.9111 -0.4122 95.0661 777.8792)" fill-rule="evenodd" clip-rule="evenodd" fill="#EE2A7B" width="1.5" height="2.486"/>
	</g>
	<g>
		
			<rect x="318.009" y="347.846" transform="matrix(-0.4122 -0.9111 0.9111 -0.4122 132.1137 783.4078)" fill-rule="evenodd" clip-rule="evenodd" fill="#EE2A7B" width="1.5" height="2.484"/>
		
			<rect x="313.947" y="349.682" transform="matrix(-0.412 -0.9112 0.9112 -0.412 124.5893 782.251)" fill-rule="evenodd" clip-rule="evenodd" fill="#EE2A7B" width="1.5" height="2.486"/>
		
			<rect x="309.899" y="351.514" transform="matrix(-0.412 -0.9112 0.9112 -0.412 117.2054 781.1481)" fill-rule="evenodd" clip-rule="evenodd" fill="#EE2A7B" width="1.5" height="2.486"/>
	</g>
	<g>
		
			<rect x="330.207" y="342.327" transform="matrix(-0.412 -0.9112 0.9112 -0.412 154.2501 786.6809)" fill-rule="evenodd" clip-rule="evenodd" fill="#EE2A7B" width="1.5" height="2.486"/>
		
			<rect x="326.146" y="344.164" transform="matrix(-0.412 -0.9112 0.9112 -0.412 146.8422 785.5743)" fill-rule="evenodd" clip-rule="evenodd" fill="#EE2A7B" width="1.5" height="2.485"/>
		
			<rect x="322.098" y="345.995" transform="matrix(-0.412 -0.9112 0.9112 -0.412 139.4583 784.4713)" fill-rule="evenodd" clip-rule="evenodd" fill="#EE2A7B" width="1.5" height="2.485"/>
	</g>
	<g>
		
			<rect x="342.405" y="336.809" transform="matrix(-0.4122 -0.9111 0.9111 -0.4122 176.6232 790.0491)" fill-rule="evenodd" clip-rule="evenodd" fill="#EE2A7B" width="1.5" height="2.486"/>
		
			<rect x="338.344" y="338.646" transform="matrix(-0.4122 -0.9111 0.9111 -0.4122 169.2144 788.9434)" fill-rule="evenodd" clip-rule="evenodd" fill="#EE2A7B" width="1.5" height="2.485"/>
		
			<rect x="334.297" y="340.477" transform="matrix(-0.4122 -0.9111 0.9111 -0.4122 161.8304 787.8417)" fill-rule="evenodd" clip-rule="evenodd" fill="#EE2A7B" width="1.5" height="2.486"/>
	</g>
	<g>
		
			<rect x="354.604" y="331.292" transform="matrix(-0.4122 -0.9111 0.9111 -0.4122 198.878 793.3703)" fill-rule="evenodd" clip-rule="evenodd" fill="#EE2A7B" width="1.5" height="2.484"/>
		
			<rect x="350.543" y="333.128" transform="matrix(-0.412 -0.9112 0.9112 -0.412 191.3464 792.2216)" fill-rule="evenodd" clip-rule="evenodd" fill="#EE2A7B" width="1.5" height="2.486"/>
		
			<rect x="346.495" y="334.959" transform="matrix(-0.412 -0.9112 0.9112 -0.412 183.9625 791.1187)" fill-rule="evenodd" clip-rule="evenodd" fill="#EE2A7B" width="1.5" height="2.486"/>
	</g>
	<g>
		
			<rect x="366.803" y="325.772" transform="matrix(-0.412 -0.9112 0.9112 -0.412 221.0072 796.6516)" fill-rule="evenodd" clip-rule="evenodd" fill="#EE2A7B" width="1.5" height="2.486"/>
		
			<rect x="362.741" y="327.609" transform="matrix(-0.412 -0.9112 0.9112 -0.412 213.5987 795.5444)" fill-rule="evenodd" clip-rule="evenodd" fill="#EE2A7B" width="1.5" height="2.486"/>
		
			<rect x="358.694" y="329.441" transform="matrix(-0.412 -0.9112 0.9112 -0.412 206.2154 794.4419)" fill-rule="evenodd" clip-rule="evenodd" fill="#EE2A7B" width="1.5" height="2.485"/>
	</g>
	<g>
		
			<rect x="379.001" y="320.254" transform="matrix(-0.4122 -0.9111 0.9111 -0.4122 243.3874 800.0116)" fill-rule="evenodd" clip-rule="evenodd" fill="#EE2A7B" width="1.5" height="2.486"/>
		
			<rect x="374.94" y="322.092" transform="matrix(-0.4122 -0.9111 0.9111 -0.4122 235.9787 798.9058)" fill-rule="evenodd" clip-rule="evenodd" fill="#EE2A7B" width="1.5" height="2.485"/>
		
			<rect x="370.892" y="323.923" transform="matrix(-0.4122 -0.9111 0.9111 -0.4122 228.594 797.8038)" fill-rule="evenodd" clip-rule="evenodd" fill="#EE2A7B" width="1.5" height="2.485"/>
	</g>
	<g>
		
			<rect x="391.199" y="314.736" transform="matrix(-0.4128 -0.9108 0.9108 -0.4128 265.9312 803.4065)" fill-rule="evenodd" clip-rule="evenodd" fill="#EE2A7B" width="1.5" height="2.485"/>
		
			<rect x="387.139" y="316.573" transform="matrix(-0.4122 -0.9111 0.9111 -0.4122 258.2335 802.2271)" fill-rule="evenodd" clip-rule="evenodd" fill="#EE2A7B" width="1.5" height="2.485"/>
		
			<rect x="383.091" y="318.404" transform="matrix(-0.4122 -0.9111 0.9111 -0.4122 250.8488 801.125)" fill-rule="evenodd" clip-rule="evenodd" fill="#EE2A7B" width="1.5" height="2.485"/>
	</g>
	<g>
		
			<rect x="403.398" y="309.218" transform="matrix(-0.412 -0.9112 0.9112 -0.412 287.7637 806.6217)" fill-rule="evenodd" clip-rule="evenodd" fill="#EE2A7B" width="1.5" height="2.485"/>
		
			<rect x="399.337" y="311.055" transform="matrix(-0.412 -0.9112 0.9112 -0.412 280.3558 805.515)" fill-rule="evenodd" clip-rule="evenodd" fill="#EE2A7B" width="1.5" height="2.486"/>
		
			<rect x="395.289" y="312.886" transform="matrix(-0.412 -0.9112 0.9112 -0.412 272.9719 804.412)" fill-rule="evenodd" clip-rule="evenodd" fill="#EE2A7B" width="1.5" height="2.486"/>
	</g>
	<g>
		
			<rect x="415.597" y="303.7" transform="matrix(-0.4122 -0.9111 0.9111 -0.4122 310.1517 809.9741)" fill-rule="evenodd" clip-rule="evenodd" fill="#EE2A7B" width="1.5" height="2.486"/>
		
			<rect x="411.536" y="305.537" transform="matrix(-0.4122 -0.9111 0.9111 -0.4122 302.743 808.8683)" fill-rule="evenodd" clip-rule="evenodd" fill="#EE2A7B" width="1.5" height="2.485"/>
		
			<rect x="407.488" y="307.368" transform="matrix(-0.4122 -0.9111 0.9111 -0.4122 295.3582 807.7663)" fill-rule="evenodd" clip-rule="evenodd" fill="#EE2A7B" width="1.5" height="2.485"/>
	</g>
	<g>
		
			<rect x="427.795" y="298.181" transform="matrix(-0.4122 -0.9111 0.9111 -0.4122 332.4062 813.2942)" fill-rule="evenodd" clip-rule="evenodd" fill="#EE2A7B" width="1.5" height="2.486"/>
		
			<rect x="423.735" y="300.019" transform="matrix(-0.4122 -0.9111 0.9111 -0.4122 324.9978 812.1896)" fill-rule="evenodd" clip-rule="evenodd" fill="#EE2A7B" width="1.5" height="2.485"/>
		
			<rect x="419.687" y="301.85" transform="matrix(-0.4122 -0.9111 0.9111 -0.4122 317.613 811.0875)" fill-rule="evenodd" clip-rule="evenodd" fill="#EE2A7B" width="1.5" height="2.485"/>
	</g>
	<g>
		
			<rect x="439.993" y="292.663" transform="matrix(-0.412 -0.9112 0.9112 -0.412 354.5208 816.5923)" fill-rule="evenodd" clip-rule="evenodd" fill="#EE2A7B" width="1.5" height="2.485"/>
		
			<rect x="435.932" y="294.5" transform="matrix(-0.412 -0.9112 0.9112 -0.412 347.1129 815.4856)" fill-rule="evenodd" clip-rule="evenodd" fill="#EE2A7B" width="1.5" height="2.486"/>
		
			<rect x="431.885" y="296.331" transform="matrix(-0.412 -0.9112 0.9112 -0.412 339.729 814.3827)" fill-rule="evenodd" clip-rule="evenodd" fill="#EE2A7B" width="1.5" height="2.486"/>
	</g>
	<g>
		
			<rect x="452.192" y="287.144" transform="matrix(-0.412 -0.9112 0.9112 -0.412 376.7737 819.9155)" fill-rule="evenodd" clip-rule="evenodd" fill="#EE2A7B" width="1.5" height="2.486"/>
		
			<rect x="448.131" y="288.982" transform="matrix(-0.4128 -0.9108 0.9108 -0.4128 369.8201 818.8774)" fill-rule="evenodd" clip-rule="evenodd" fill="#EE2A7B" width="1.5" height="2.485"/>
		
			<rect x="444.084" y="290.813" transform="matrix(-0.4122 -0.9111 0.9111 -0.4122 362.1225 817.7288)" fill-rule="evenodd" clip-rule="evenodd" fill="#EE2A7B" width="1.5" height="2.485"/>
	</g>
	<g>
		
			<rect x="464.391" y="281.626" transform="matrix(-0.4122 -0.9111 0.9111 -0.4122 399.1705 823.2567)" fill-rule="evenodd" clip-rule="evenodd" fill="#EE2A7B" width="1.5" height="2.486"/>
		
			<rect x="460.33" y="283.464" transform="matrix(-0.4122 -0.9111 0.9111 -0.4122 391.7614 822.1516)" fill-rule="evenodd" clip-rule="evenodd" fill="#EE2A7B" width="1.5" height="2.484"/>
		
			<rect x="456.282" y="285.295" transform="matrix(-0.4122 -0.9111 0.9111 -0.4122 384.3766 821.0496)" fill-rule="evenodd" clip-rule="evenodd" fill="#EE2A7B" width="1.5" height="2.484"/>
	</g>
	<g>
		
			<rect x="476.589" y="276.109" transform="matrix(-0.412 -0.9112 0.9112 -0.412 421.278 826.5629)" fill-rule="evenodd" clip-rule="evenodd" fill="#EE2A7B" width="1.5" height="2.485"/>
		
			<rect x="472.528" y="277.945" transform="matrix(-0.412 -0.9112 0.9112 -0.412 413.8701 825.4562)" fill-rule="evenodd" clip-rule="evenodd" fill="#EE2A7B" width="1.5" height="2.486"/>
		
			<rect x="468.48" y="279.776" transform="matrix(-0.412 -0.9112 0.9112 -0.412 406.4861 824.3533)" fill-rule="evenodd" clip-rule="evenodd" fill="#EE2A7B" width="1.5" height="2.486"/>
	</g>
	<g>
		
			<rect x="488.787" y="270.59" transform="matrix(-0.412 -0.9112 0.9112 -0.412 443.5302 829.8857)" fill-rule="evenodd" clip-rule="evenodd" fill="#EE2A7B" width="1.5" height="2.485"/>
		
			<rect x="484.727" y="272.427" transform="matrix(-0.4122 -0.9111 0.9111 -0.4122 436.2708 828.7929)" fill-rule="evenodd" clip-rule="evenodd" fill="#EE2A7B" width="1.5" height="2.486"/>
		
			<rect x="480.679" y="274.258" transform="matrix(-0.4122 -0.9111 0.9111 -0.4122 428.886 827.6909)" fill-rule="evenodd" clip-rule="evenodd" fill="#EE2A7B" width="1.5" height="2.486"/>
	</g>
	<g>
		
			<rect x="500.987" y="265.072" transform="matrix(-0.4122 -0.9111 0.9111 -0.4122 465.9348 833.2192)" fill-rule="evenodd" clip-rule="evenodd" fill="#EE2A7B" width="1.5" height="2.486"/>
		
			<rect x="496.926" y="266.91" transform="matrix(-0.4122 -0.9111 0.9111 -0.4122 458.5256 832.1141)" fill-rule="evenodd" clip-rule="evenodd" fill="#EE2A7B" width="1.5" height="2.484"/>
		
			<rect x="492.878" y="268.741" transform="matrix(-0.4122 -0.9111 0.9111 -0.4122 451.1409 831.0121)" fill-rule="evenodd" clip-rule="evenodd" fill="#EE2A7B" width="1.5" height="2.484"/>
	</g>
	<g>
		
			<rect x="513.184" y="259.554" transform="matrix(-0.412 -0.9112 0.9112 -0.412 488.0344 836.533)" fill-rule="evenodd" clip-rule="evenodd" fill="#EE2A7B" width="1.5" height="2.486"/>
		
			<rect x="509.123" y="261.391" transform="matrix(-0.412 -0.9112 0.9112 -0.412 480.6265 835.4263)" fill-rule="evenodd" clip-rule="evenodd" fill="#EE2A7B" width="1.5" height="2.485"/>
		
			<rect x="505.076" y="263.222" transform="matrix(-0.412 -0.9112 0.9112 -0.412 473.2433 834.3239)" fill-rule="evenodd" clip-rule="evenodd" fill="#EE2A7B" width="1.5" height="2.486"/>
	</g>
	<g>
		
			<rect x="525.383" y="254.035" transform="matrix(-0.412 -0.9112 0.9112 -0.412 510.2874 839.8563)" fill-rule="evenodd" clip-rule="evenodd" fill="#EE2A7B" width="1.5" height="2.485"/>
		
			<rect x="521.323" y="255.872" transform="matrix(-0.4122 -0.9111 0.9111 -0.4122 503.035 838.7554)" fill-rule="evenodd" clip-rule="evenodd" fill="#EE2A7B" width="1.5" height="2.486"/>
		
			<rect x="517.275" y="257.703" transform="matrix(-0.4122 -0.9111 0.9111 -0.4122 495.6503 837.6534)" fill-rule="evenodd" clip-rule="evenodd" fill="#EE2A7B" width="1.5" height="2.486"/>
	</g>
</g>
<g>
</g>
<g>
</g>
<g>
</g>
<g>
</g>
<g>
</g>
<g>
</g>
</svg>
